<svg width="60" height="60" viewBox="0 0 60 60" fill="none" xmlns="http://www.w3.org/2000/svg">
<g clip-path="url(#clip0_80_7)">
<path opacity="0.929" fill-rule="evenodd" clip-rule="evenodd" d="M59.9414 39.5509C59.9414 39.9024 59.9414 40.254 59.9414 40.6056C59.6067 40.9099 59.2161 41.1247 58.7695 41.2501C51.6601 43.8282 44.5508 46.4063 37.4414 48.9845C37.104 52.6807 35.151 55.0244 31.582 56.0157C27.4661 56.5853 24.595 54.9641 22.9688 51.1524C22.3662 48.9926 22.6005 46.9222 23.6719 44.9415C24.1025 44.3359 24.5517 43.7499 25.0195 43.1837C20.9551 31.8689 16.834 20.5799 12.6562 9.3165C9.12143 10.6511 5.56673 11.9402 1.99219 13.1837C1.74148 13.0974 1.5071 12.9803 1.28906 12.8321C0.833497 11.6889 0.384279 10.5561 -0.0585938 9.43369C-0.0585938 9.08212 -0.0585938 8.73056 -0.0585938 8.379C0.204018 8.12747 0.516518 7.95169 0.878906 7.85166C4.72966 6.43786 8.59685 5.07068 12.4805 3.75009C15.0754 3.53348 16.8137 4.64677 17.6953 7.08994C21.8359 18.4961 25.9766 29.9025 30.1172 41.3087C30.7121 41.5361 31.3177 41.6142 31.9336 41.5431C28.5345 32.1669 25.136 22.7919 21.7383 13.4181C21.8677 12.9174 22.1802 12.5854 22.6758 12.422C29.269 10.0225 35.8705 7.65922 42.4805 5.33212C43.0084 5.29308 43.3405 5.52745 43.4766 6.03525C44.0626 7.53937 44.59 9.06281 45.0586 10.6056C44.8721 11.4801 44.3643 11.734 43.5352 11.3673C42.9545 10.0749 42.4076 8.76635 41.8945 7.4415C39.9192 8.13879 37.9661 8.88098 36.0352 9.66806C36.4779 10.749 36.888 11.8427 37.2656 12.9493C37.4347 13.5015 37.2981 13.9507 36.8555 14.297C35.2533 14.8638 33.6518 15.4302 32.0508 15.9962C31.7566 15.9572 31.5027 15.84 31.2891 15.6446C30.7577 14.4218 30.3086 13.1717 29.9414 11.8946C28.6043 12.3078 27.2762 12.757 25.957 13.2423C25.2544 13.477 24.5903 13.77 23.9648 14.1212C25.4886 18.2629 27.0121 22.4035 28.5352 26.5431C34.4681 24.3636 40.4057 22.1956 46.3477 20.0392C46.4088 19.9734 46.4479 19.8953 46.4648 19.8048C45.7498 17.8353 45.0466 15.8626 44.3555 13.8868C44.5941 13.085 45.102 12.8311 45.8789 13.1251C46.1702 13.4927 46.385 13.9029 46.5234 14.3556C49.2347 21.9036 51.9691 29.4426 54.7266 36.9728C55.5943 36.6183 56.4732 36.2863 57.3633 35.9767C57.9155 35.8076 58.3646 35.9442 58.7109 36.3868C59.067 37.4762 59.4771 38.5309 59.9414 39.5509ZM12.7148 5.5665C14.0931 5.42541 15.0892 5.97228 15.7031 7.20712C19.8207 18.5833 23.9613 29.9505 28.125 41.3087C28.2128 41.4417 28.1933 41.5589 28.0664 41.6603C27.591 41.799 27.1418 41.9944 26.7188 42.2462C22.5462 30.6657 18.3274 19.1032 14.0625 7.55869C13.7516 7.24297 13.3805 7.14532 12.9492 7.26572C9.47296 8.50903 5.9964 9.7395 2.51953 10.9571C2.4313 10.4676 2.27505 9.99886 2.05078 9.55087C5.59946 8.18583 9.15416 6.8577 12.7148 5.5665ZM34.043 10.254C34.258 10.3269 34.3948 10.4832 34.4531 10.7227C34.6615 11.4264 34.9154 12.11 35.2148 12.7735C34.3478 13.1863 33.4493 13.5184 32.5195 13.7696C32.227 12.9126 31.9731 12.0532 31.7578 11.1915C32.5339 10.8879 33.2957 10.5754 34.043 10.254ZM47.0508 21.7384C49.1157 26.9945 51.0689 32.307 52.9102 37.6759C47.1302 39.6872 41.3686 41.7575 35.625 43.8868C35.2357 43.5759 34.845 43.2634 34.4531 42.9493C32.7213 38.0661 30.9439 33.2028 29.1211 28.3595C31.0697 27.6253 33.0229 26.9026 34.9805 26.1915C35.447 27.2192 35.8571 28.2739 36.2109 29.3556C36.3683 30.1076 36.8175 30.4005 37.5586 30.2345C39.1302 29.6716 40.6927 29.0857 42.2461 28.4767C42.4414 28.263 42.5586 28.0091 42.5977 27.7149C42.1798 26.4807 41.75 25.2502 41.3086 24.0235C41.3476 23.9649 41.3868 23.9063 41.4258 23.8477C43.3214 23.1643 45.1964 22.4612 47.0508 21.7384ZM39.3164 24.5509C39.4332 24.5474 39.5114 24.606 39.5508 24.7267C39.8011 25.5167 40.0745 26.298 40.3711 27.0704C40.3236 27.1811 40.2455 27.2593 40.1367 27.3048C39.3579 27.5908 38.5767 27.8252 37.793 28.0079C37.4695 27.2137 37.157 26.413 36.8555 25.6056C37.674 25.2293 38.4943 24.8777 39.3164 24.5509ZM57.1289 38.0274C57.2457 38.0239 57.3239 38.0825 57.3633 38.2032C57.485 38.6271 57.6413 39.0372 57.832 39.4337C50.9934 42.031 44.1184 44.57 37.207 47.0509C37.0576 46.5637 36.8623 46.095 36.6211 45.6446C36.6826 45.5635 36.7608 45.5049 36.8555 45.4688C43.6383 43.0195 50.3961 40.539 57.1289 38.0274ZM29.4727 43.3009C33.5459 43.5262 35.5185 45.6747 35.3906 49.7462C34.8104 52.2404 33.2674 53.7444 30.7617 54.2579C28.0048 54.4516 26.0321 53.2992 24.8438 50.8009C23.9477 47.5902 24.9829 45.2269 27.9492 43.711C28.4671 43.5526 28.9748 43.4158 29.4727 43.3009ZM29.707 47.9884C30.8538 48.1746 31.0492 48.7019 30.293 49.5704C29.4275 49.6814 29.0954 49.3102 29.2969 48.4571C29.426 48.2873 29.5628 48.1311 29.707 47.9884Z" fill="white"/>
<path opacity="0.926" fill-rule="evenodd" clip-rule="evenodd" d="M29.4727 46.1133C31.7152 46.1486 32.7503 47.2813 32.5781 49.5117C32.0469 51.0379 30.9727 51.6824 29.3555 51.4453C28.0542 51.0519 27.3511 50.173 27.2461 48.8086C27.4136 47.4114 28.1557 46.5129 29.4727 46.1133ZM29.707 47.9883C29.5628 48.131 29.426 48.2872 29.2969 48.457C29.0954 49.3102 29.4275 49.6813 30.293 49.5703C31.0492 48.7018 30.8538 48.1745 29.707 47.9883Z" fill="white"/>
</g>
<defs>
<clipPath id="clip0_80_7">
<rect width="60" height="60" fill="white"/>
</clipPath>
</defs>
</svg>
