<svg width="60" height="60" viewBox="0 0 60 60" fill="none" xmlns="http://www.w3.org/2000/svg">
<g clip-path="url(#clip0_191_265)">
<path opacity="0.94" fill-rule="evenodd" clip-rule="evenodd" d="M10.2541 -0.0585938C13.0666 -0.0585938 15.8791 -0.0585938 18.6916 -0.0585938C18.8842 0.0370822 19.0209 0.193332 19.1017 0.410156C19.1603 3.41772 19.1799 6.42553 19.1603 9.43359C20.4109 9.41408 21.661 9.43362 22.9103 9.49219C23.4639 9.77757 23.6397 10.2268 23.4377 10.8398C20.6731 14.5328 17.8802 18.2046 15.0587 21.8555C14.4132 22.1007 13.8858 21.9445 13.4767 21.3867C10.8205 17.8711 8.16422 14.3555 5.50797 10.8398C5.32416 10.2392 5.49994 9.79001 6.03531 9.49219C7.28471 9.43362 8.5347 9.41408 9.78531 9.43359C9.76579 6.46459 9.78531 3.49583 9.8439 0.527344C9.92561 0.283078 10.0623 0.0877662 10.2541 -0.0585938ZM11.7775 1.81641C13.6135 1.81641 15.4493 1.81641 17.2853 1.81641C17.2657 4.82447 17.2853 7.83229 17.3439 10.8398C17.4025 11.0547 17.5393 11.1914 17.7541 11.25C18.694 11.2697 19.6315 11.3283 20.5666 11.4258C18.6014 14.0686 16.6093 16.6857 14.59 19.2773C12.5317 16.6859 10.5005 14.0687 8.49625 11.4258C9.43132 11.3283 10.3688 11.2697 11.3087 11.25C11.4064 11.1523 11.5041 11.0547 11.6017 10.957C11.7732 7.91617 11.8318 4.86929 11.7775 1.81641Z" fill="#EC7216"/>
<path opacity="0.929" fill-rule="evenodd" clip-rule="evenodd" d="M38.6132 -0.0585938C38.8475 -0.0585938 39.0819 -0.0585938 39.3163 -0.0585938C42.3372 1.62803 45.384 3.28818 48.4569 4.92188C48.6523 5 48.8475 5 49.0429 4.92188C51.531 3.93197 54.1091 3.50228 56.7772 3.63281C58.3002 3.85057 59.3549 4.65136 59.9413 6.03516C59.9413 6.69922 59.9413 7.36328 59.9413 8.02734C59.4394 9.31956 58.6582 10.4328 57.5975 11.3672C56.1659 12.5421 54.662 13.6163 53.0858 14.5898C52.4482 17.9859 51.8232 21.3844 51.2108 24.7852C51.1686 25.0103 51.0709 25.2056 50.9179 25.3711C49.799 25.8547 48.6662 26.3039 47.5194 26.7188C46.8921 26.8641 46.4429 26.6491 46.1718 26.0742C46.0124 23.4514 45.7975 20.8343 45.5272 18.2227C41.5082 19.8162 37.4066 21.1638 33.2225 22.2656C32.4848 23.8389 31.7622 25.4209 31.0546 27.0117C30.957 27.1093 30.8592 27.2071 30.7616 27.3047C29.9548 27.5304 29.1345 27.7062 28.3007 27.832C27.5861 27.801 27.1954 27.4298 27.1288 26.7188C27.308 25.4837 27.5033 24.2532 27.7147 23.0273C27.065 23.0276 26.4009 23.0081 25.7225 22.9688C24.6793 22.8628 24.2692 22.2964 24.4921 21.2695C24.8523 20.5303 25.3405 19.8858 25.9569 19.3359C24.9022 18.6718 23.8475 18.0079 22.7929 17.3438C22.2258 16.9695 22.089 16.4811 22.3827 15.8789C23.0752 15.1253 23.876 14.5393 24.785 14.1211C26.4997 14.5448 28.199 15.0136 29.8827 15.5273C33.4852 13.0712 37.1766 10.747 40.9569 8.55469C39.0204 6.73528 37.1258 4.87982 35.2733 2.98828C35.1042 2.43609 35.2409 1.98688 35.6835 1.64062C36.6674 1.07108 37.644 0.504679 38.6132 -0.0585938ZM38.7304 2.05078C39.1043 2.12018 39.4559 2.2569 39.785 2.46094C42.5702 4.03539 45.3827 5.55882 48.2225 7.03125C48.4179 7.10938 48.6131 7.10938 48.8085 7.03125C50.3727 6.43512 51.9742 5.96637 53.6132 5.625C54.545 5.45604 55.4825 5.41698 56.4257 5.50781C57.8148 5.807 58.2641 6.60779 57.7733 7.91016C57.2215 8.81432 56.5379 9.61509 55.7225 10.3125C54.3607 11.3614 52.9349 12.3184 51.4452 13.1836C50.6611 16.7327 49.8994 20.2875 49.16 23.8477C48.7268 23.996 48.3166 24.1912 47.9296 24.4336C47.7232 21.7781 47.5279 19.122 47.3436 16.4648C47.153 15.9979 46.8014 15.7635 46.2889 15.7617C41.5997 17.5852 36.8145 19.1282 31.9335 20.3906C31.807 20.5027 31.6704 20.6003 31.5233 20.6836C30.8023 22.3598 30.021 24.0005 29.1796 25.6055C29.2968 24.2774 29.414 22.9492 29.5311 21.6211C29.4391 21.4118 29.3025 21.236 29.121 21.0938C28.3788 21.0547 27.6366 21.0156 26.8944 20.9766C27.2244 20.5332 27.5956 20.1231 28.0077 19.7461C28.1815 19.3709 28.2206 18.9802 28.1249 18.5742C27.0816 17.7693 26.0073 17.0075 24.9022 16.2891C24.9638 16.208 25.0419 16.1494 25.1366 16.1133C26.8794 16.6563 28.6372 17.1056 30.41 17.4609C34.6376 14.5554 38.993 11.8405 43.4764 9.31641C43.6472 8.98055 43.6862 8.62898 43.5936 8.26172C41.6564 6.36334 39.6837 4.50787 37.6757 2.69531C38.0739 2.53628 38.4254 2.32144 38.7304 2.05078Z" fill="#EC7216"/>
<path opacity="0.939" fill-rule="evenodd" clip-rule="evenodd" d="M59.9414 40.0207C59.9414 44.7863 59.9414 49.5519 59.9414 54.3175C59.8458 54.5102 59.6895 54.6468 59.4727 54.7277C58.2233 54.7863 56.9733 54.8059 55.7227 54.7863C55.5737 57.4333 54.2456 59.152 51.7383 59.9425C51.0352 59.9425 50.332 59.9425 49.6289 59.9425C47.0638 59.1902 45.7357 57.4715 45.6445 54.7863C42.3633 54.7863 39.082 54.7863 35.8008 54.7863C35.7087 57.4746 34.3805 59.1932 31.8164 59.9425C31.1133 59.9425 30.4102 59.9425 29.707 59.9425C27.143 59.1932 25.8148 57.4746 25.7227 54.7863C23.9254 54.8059 22.1285 54.7863 20.332 54.7277C20.1505 54.5854 20.0139 54.4096 19.9219 54.2003C19.9017 53.6881 19.8431 53.1803 19.7461 52.6769C13.0021 54.3936 7.39664 52.5968 2.92969 47.2863C1.34729 45.0958 0.351198 42.6739 -0.0585938 40.0207C-0.0585938 38.7706 -0.0585938 37.5207 -0.0585938 36.2707C1.27134 29.0615 5.52915 24.667 12.7148 23.0871C18.6449 22.2895 23.5473 24.1449 27.4219 28.6535C30.9991 33.508 31.6632 38.7423 29.4141 44.3566C29.1267 44.9902 28.7946 45.5957 28.418 46.173C33.8085 46.2316 39.1991 46.2512 44.5898 46.2316C44.5703 41.2314 44.5898 36.2314 44.6484 31.2316C44.6951 30.9114 44.8709 30.6966 45.1758 30.5871C47.7929 30.5089 50.4102 30.5089 53.0273 30.5871C54.1623 30.8513 55.0021 31.4958 55.5469 32.5207C57.0459 35.0125 58.5108 37.5126 59.9414 40.0207ZM15.1758 24.7863C15.5235 24.8436 15.8359 24.9802 16.1133 25.1964C17.4202 26.868 18.2405 28.7626 18.5742 30.88C16.3853 30.9191 14.1979 30.88 12.0117 30.7628C12.4189 28.7775 13.2002 26.961 14.3555 25.3136C14.6203 25.1041 14.8937 24.9283 15.1758 24.7863ZM11.6602 25.255C11.7628 25.2397 11.841 25.2787 11.8945 25.3722C11.0127 27.0802 10.3877 28.8772 10.0195 30.7628C8.06484 30.8019 6.11171 30.7627 4.16016 30.6457C6.04582 27.9849 8.54582 26.1881 11.6602 25.255ZM18.5742 25.3722C21.8461 26.0947 24.4632 27.8525 26.4258 30.6457C24.4738 30.7823 22.5207 30.8019 20.5664 30.7042C20.3198 29.6599 20.0269 28.6248 19.6875 27.5988C19.3921 26.8044 19.0209 26.0621 18.5742 25.3722ZM34.2773 32.4035C36.6993 32.4035 39.1211 32.4035 41.543 32.4035C41.543 33.4582 41.543 34.5128 41.543 35.5675C39.1211 35.5675 36.6993 35.5675 34.2773 35.5675C34.2773 34.5128 34.2773 33.4582 34.2773 32.4035ZM46.582 32.4035C48.4965 32.3839 50.4105 32.4035 52.3242 32.4621C53.1723 32.6458 53.7778 33.134 54.1406 33.9269C55.327 35.968 56.5575 37.9797 57.832 39.9621C54.0823 40.0207 50.3323 40.0402 46.582 40.0207C46.582 37.4816 46.582 34.9426 46.582 32.4035ZM2.98828 32.755C5.21484 32.755 7.44141 32.755 9.66797 32.755C9.50555 34.1963 9.38836 35.6416 9.31641 37.091C6.81641 37.091 4.3164 37.091 1.81641 37.091C2.0065 35.5882 2.39712 34.1429 2.98828 32.755ZM11.6602 32.755C14.1211 32.755 16.582 32.755 19.043 32.755C19.2107 34.1949 19.2888 35.6402 19.2773 37.091C16.6208 37.1105 13.9645 37.091 11.3086 37.0324C11.4154 35.6118 11.5326 34.186 11.6602 32.755ZM20.8008 32.8722C23.0678 32.8332 25.3334 32.8722 27.5977 32.9894C28.28 34.3126 28.6316 35.7188 28.6523 37.2082C26.1524 37.2082 23.6523 37.2082 21.1523 37.2082C21.1666 35.7498 21.0495 34.3044 20.8008 32.8722ZM1.81641 39.0832C4.3164 39.0832 6.81641 39.0832 9.31641 39.0832C9.37988 40.5333 9.49706 41.9786 9.66797 43.4191C7.44107 43.4387 5.2145 43.4191 2.98828 43.3605C2.38792 41.9943 1.99729 40.5686 1.81641 39.0832ZM11.3086 39.0832C13.9649 39.0832 16.6211 39.0832 19.2773 39.0832C19.202 40.5322 19.0848 41.9775 18.9258 43.4191C16.5027 43.4581 14.0808 43.4191 11.6602 43.3019C11.4595 41.905 11.3423 40.4988 11.3086 39.0832ZM21.2695 39.0832C23.7695 39.0832 26.2696 39.0832 28.7695 39.0832C28.625 40.5795 28.2343 42.0052 27.5977 43.3605C25.3714 43.4191 23.1449 43.4387 20.918 43.4191C21.1126 41.9807 21.2298 40.5355 21.2695 39.0832ZM34.2773 40.255C36.6993 40.255 39.1211 40.255 41.543 40.255C41.543 41.3097 41.543 42.3644 41.543 43.4191C39.1211 43.4191 36.6993 43.4191 34.2773 43.4191C34.2773 42.3644 34.2773 41.3097 34.2773 40.255ZM46.582 41.8957C50.4102 41.8957 54.2382 41.8957 58.0664 41.8957C58.0664 43.3409 58.0664 44.7863 58.0664 46.2316C54.2382 46.2316 50.4102 46.2316 46.582 46.2316C46.582 44.7863 46.582 43.3409 46.582 41.8957ZM4.16016 45.4113C6.15234 45.4113 8.14453 45.4113 10.1367 45.4113C10.423 47.3444 11.048 49.1608 12.0117 50.8605C8.64153 50.1268 6.02435 48.3104 4.16016 45.4113ZM12.0117 45.5285C14.1802 45.3728 16.3677 45.3728 18.5742 45.5285C16.3648 53.3368 14.1772 53.3368 12.0117 45.5285ZM20.6836 45.4113C22.6761 45.3917 24.6683 45.4113 26.6602 45.4699C24.6473 48.2054 22.0106 50.0608 18.75 51.0363C19.5425 49.2253 20.1871 47.3503 20.6836 45.4113ZM26.6602 48.2238C37.1289 48.2238 47.5977 48.2238 58.0664 48.2238C58.0664 49.7862 58.0664 51.3488 58.0664 52.9113C57.1671 52.9307 56.2686 52.9113 55.3711 52.8527C54.0831 50.4556 52.0909 49.5181 49.3945 50.0402C47.8655 50.5101 46.7326 51.4476 45.9961 52.8527C42.4805 52.9309 38.9648 52.9309 35.4492 52.8527C34.1612 50.4556 32.169 49.5181 29.4727 50.0402C27.9459 50.5132 26.8131 51.4507 26.0742 52.8527C24.6686 52.9113 23.2623 52.9309 21.8555 52.9113C21.8222 52.5273 21.8612 52.1562 21.9727 51.798C23.8298 50.97 25.3923 49.7785 26.6602 48.2238ZM30.0586 51.8566C32.2979 51.7523 33.587 52.807 33.9258 55.0207C33.7093 56.9063 32.6546 57.922 30.7617 58.0675C28.9185 57.8455 27.8638 56.8103 27.5977 54.9621C27.7914 53.4216 28.6117 52.3864 30.0586 51.8566ZM49.9805 51.8566C52.2427 51.755 53.5317 52.8292 53.8477 55.0793C53.4541 57.1524 52.2042 58.1289 50.0977 58.0089C47.7291 57.1526 47.0454 55.5706 48.0469 53.2628C48.5483 52.584 49.1929 52.1152 49.9805 51.8566Z" fill="#EC7216"/>
<path opacity="0.94" fill-rule="evenodd" clip-rule="evenodd" d="M32.8711 30.5278C36.2308 30.5083 39.5901 30.5278 42.9492 30.5864C43.086 30.7232 43.2226 30.8598 43.3594 30.9966C43.4376 33.0278 43.4376 35.0591 43.3594 37.0903C43.2171 37.2719 43.0414 37.4085 42.8321 37.5005C39.5508 37.5787 36.2696 37.5787 32.9883 37.5005C32.6048 37.3903 32.39 37.1364 32.3438 36.7388C32.2656 34.9419 32.2656 33.145 32.3438 31.3482C32.4059 30.9866 32.5817 30.7132 32.8711 30.5278ZM34.2774 32.4028C34.2774 33.4575 34.2774 34.5122 34.2774 35.5669C36.6993 35.5669 39.1211 35.5669 41.543 35.5669C41.543 34.5122 41.543 33.4575 41.543 32.4028C39.1211 32.4028 36.6993 32.4028 34.2774 32.4028Z" fill="#EC7216"/>
<path opacity="0.94" fill-rule="evenodd" clip-rule="evenodd" d="M32.8711 38.3794C36.2308 38.3598 39.5901 38.3794 42.9492 38.438C43.086 38.5748 43.2226 38.7114 43.3594 38.8482C43.4733 40.9292 43.4343 42.9994 43.2422 45.0591C43.0675 45.2353 42.8527 45.333 42.5977 45.3521C39.3092 45.4663 36.0279 45.4272 32.7539 45.2349C32.4882 45.0523 32.3515 44.7985 32.3438 44.4732C32.2656 42.7153 32.2656 40.9575 32.3438 39.1997C32.3608 38.8138 32.5366 38.5404 32.8711 38.3794ZM34.2774 40.2544C34.2774 41.3091 34.2774 42.3638 34.2774 43.4185C36.6993 43.4185 39.1211 43.4185 41.543 43.4185C41.543 42.3638 41.543 41.3091 41.543 40.2544C39.1211 40.2544 36.6993 40.2544 34.2774 40.2544Z" fill="#EC7216"/>
</g>
<defs>
<clipPath id="clip0_191_265">
<rect width="60" height="60" fill="white"/>
</clipPath>
</defs>
</svg>
