<svg width="60" height="60" viewBox="0 0 60 60" fill="none" xmlns="http://www.w3.org/2000/svg">
<g clip-path="url(#clip0_80_82)">
<path opacity="0.958" fill-rule="evenodd" clip-rule="evenodd" d="M40.8399 0.644531C43.6582 1.55796 46.4707 2.49546 49.2774 3.45703C50.7884 1.94632 52.5852 1.45805 54.668 1.99219C56.8674 2.80556 58.0001 4.38759 58.0664 6.73828C58.0666 8.26119 57.5198 9.55025 56.4258 10.6055C57.4066 13.4107 58.3245 16.2232 59.1797 19.043C58.514 19.7283 57.8303 20.3924 57.1289 21.0352C55.1774 19.1422 53.2438 17.2282 51.3282 15.293C50.6942 15.7955 50.0496 16.2838 49.3946 16.7578C53.4493 23.0306 54.4453 29.7689 52.3828 36.9727C52.0029 38.083 51.5928 39.1767 51.1524 40.2539C53.1059 40.2343 55.0591 40.2539 57.0118 40.3125C57.9688 40.6445 58.6134 41.289 58.9453 42.2461C59.1358 46.8912 59.1748 51.5395 59.0625 56.1914C59.0046 57.5771 58.3211 58.4951 57.0118 58.9453C51.3408 59.0607 45.6768 59.0217 40.0196 58.8281C39.2404 58.4398 38.713 57.8343 38.4375 57.0117C38.3985 55.2929 38.3594 53.5743 38.3203 51.8555C35.7474 52.8778 33.0716 53.4052 30.293 53.4375C28.8006 56.2738 26.4959 58.0707 23.3789 58.8281C20.9423 58.9615 18.5009 59.0201 16.0547 59.0039C13.6085 59.0201 11.1671 58.9615 8.7305 58.8281C5.33366 58.0098 2.93132 55.9982 1.52347 52.793C1.23912 52.0744 1.0438 51.3321 0.937534 50.5664C0.878952 49.0044 0.859422 47.4418 0.878941 45.8789C2.75394 45.8789 4.62894 45.8789 6.50394 45.8789C6.54247 45.2102 6.5034 44.5462 6.38675 43.8867C4.77409 43.0545 4.24675 41.7654 4.80472 40.0195C5.48632 38.7313 6.56054 38.1648 8.02738 38.3203C6.67614 34.8718 6.18785 31.2976 6.56253 27.5977C6.69123 26.1338 6.9842 24.7079 7.44144 23.3203C5.37639 20.3169 3.40372 17.2505 1.52347 14.1211C-0.00218749 9.69601 0.954844 5.92649 4.39457 2.8125C7.324 0.729327 10.4881 0.299639 13.8868 1.52344C17.0904 2.951 18.985 5.39241 19.5703 8.84766C24.5713 6.46723 29.7862 5.86177 35.2149 7.03125C38.0731 7.68918 40.7098 8.84152 43.125 10.4883C43.5991 9.83324 44.0874 9.18871 44.5899 8.55469C42.6546 6.639 40.7406 4.70541 38.8477 2.75391C39.5143 2.04839 40.1784 1.34527 40.8399 0.644531ZM10.1368 2.75391C14.7455 3.22204 17.2846 5.7611 17.7539 10.3711C17.7114 11.6967 17.3794 12.9468 16.7578 14.1211C14.7529 17.1805 12.7021 20.2078 10.6055 23.2031C10.1271 23.3546 9.75605 23.2179 9.49222 22.793C7.57816 19.9023 5.66409 17.0118 3.75003 14.1211C2.07995 10.5371 2.64635 7.35348 5.44925 4.57031C6.82927 3.46925 8.39177 2.86378 10.1368 2.75391ZM42.3633 3.33984C44.1441 3.8553 45.9019 4.44124 47.6368 5.09766C47.0487 5.70514 46.4823 6.33014 45.9375 6.97266C44.7224 5.77716 43.5311 4.56622 42.3633 3.33984ZM52.3243 3.80859C54.5453 3.57079 55.7953 4.54736 56.0743 6.73828C56.1224 7.39421 55.9466 7.98015 55.5469 8.49609C53.4809 10.7191 51.2739 12.7698 48.9258 14.6484C46.9772 16.0464 44.9069 17.2573 42.7149 18.2812C41.584 18.8979 41.1739 18.6049 41.4844 17.4023C43.9548 11.9504 47.5681 7.41916 52.3243 3.80859ZM9.43363 6.62109C11.4352 6.38114 12.8609 7.16239 13.711 8.96484C14.2701 11.1467 13.5474 12.7288 11.543 13.7109C9.36112 14.27 7.77909 13.5473 6.79691 11.543C6.23858 9.10371 7.11749 7.46309 9.43363 6.62109ZM29.2383 8.49609C29.9917 8.40207 30.6948 8.5388 31.3477 8.90625C31.9922 9.39454 32.5586 9.96094 33.0469 10.6055C33.6189 11.5343 34.1462 12.4913 34.6289 13.4766C34.373 13.7128 34.1386 13.9668 33.9258 14.2383C34.3265 14.4874 34.7366 14.7218 35.1563 14.9414C35.474 15.8554 35.7669 16.7733 36.0352 17.6953C32.0119 17.7539 27.9885 17.7735 23.9649 17.7539C24.5355 14.9339 25.6487 12.3558 27.3047 10.0195C27.8404 9.35396 28.4849 8.84616 29.2383 8.49609ZM25.4883 8.84766C25.6084 8.89413 25.628 8.97225 25.5469 9.08203C23.7111 11.7009 22.4806 14.5915 21.8555 17.7539C20.1754 17.7735 18.4956 17.7539 16.8164 17.6953C17.6322 16.5656 18.3549 15.3742 18.9844 14.1211C19.3382 13.1337 19.5726 12.118 19.6875 11.0742C21.5384 10.0867 23.472 9.34448 25.4883 8.84766ZM34.3946 9.08203C37.1472 9.51846 39.6863 10.5536 42.0118 12.1875C40.4341 11.847 38.852 11.4759 37.2657 11.0742C37.168 11.0938 37.0703 11.1133 36.9727 11.1328C36.7169 11.4082 36.4435 11.6621 36.1524 11.8945C35.6222 10.9101 35.0363 9.97259 34.3946 9.08203ZM56.543 17.5195C55.3166 16.3518 54.1057 15.1604 52.9102 13.9453C53.5527 13.4005 54.1777 12.8341 54.7852 12.2461C55.4416 13.9809 56.0275 15.7388 56.543 17.5195ZM37.6758 13.3008C38.7848 13.4803 39.8785 13.7343 40.9571 14.0625C40.7165 14.4472 40.4625 14.8184 40.1953 15.1758C39.2127 14.7333 38.2557 14.2451 37.3243 13.7109C37.4661 13.5892 37.5832 13.4524 37.6758 13.3008ZM37.6758 16.2305C38.2342 16.451 38.7811 16.7048 39.3164 16.9922C39.3734 17.2297 39.3734 17.4836 39.3164 17.7539C38.8867 17.7539 38.4571 17.7539 38.0274 17.7539C37.9286 17.2414 37.8114 16.7336 37.6758 16.2305ZM47.6368 17.8711C49.9575 21.2004 51.2076 24.9114 51.3868 29.0039C47.3634 29.0039 43.3398 29.0039 39.3164 29.0039C39.3062 25.8552 39.0328 22.7303 38.4961 19.6289C38.9276 19.6096 39.3572 19.629 39.7852 19.6875C40.6461 20.5206 41.6617 20.794 42.8321 20.5078C43.7546 22.3334 44.6921 24.1498 45.6446 25.957C46.6976 24.9626 47.7327 23.947 48.75 22.9102C48.4731 21.216 48.1021 19.5363 47.6368 17.8711ZM45.7618 18.9258C46.096 19.8904 46.3695 20.8864 46.5821 21.9141C46.5449 22.1869 46.4082 22.4017 46.1719 22.5586C45.6378 21.6272 45.1496 20.6701 44.7071 19.6875C45.063 19.4323 45.4145 19.1783 45.7618 18.9258ZM15.5274 19.6289C17.4805 19.6289 19.4336 19.6289 21.3868 19.6289C20.85 22.73 20.5766 25.8551 20.5664 29.0039C16.543 29.0039 12.5195 29.0039 8.49613 29.0039C8.53738 27.6582 8.71316 26.3302 9.02347 25.0195C10.0692 25.4011 11.0653 25.3035 12.0118 24.7266C13.2552 23.0736 14.4271 21.3744 15.5274 19.6289ZM23.4961 19.6289C27.7932 19.6093 32.0901 19.6289 36.3868 19.6875C37.0274 22.7546 37.34 25.8601 37.3243 29.0039C32.4024 29.0039 27.4805 29.0039 22.5586 29.0039C22.5619 25.8456 22.8744 22.7205 23.4961 19.6289ZM8.49613 30.8789C12.5195 30.8789 16.543 30.8789 20.5664 30.8789C20.5566 33.3586 20.7519 35.8195 21.1524 38.2617C17.4805 38.4179 13.8086 38.4179 10.1368 38.2617C9.12721 35.9032 8.58033 33.4423 8.49613 30.8789ZM22.5586 30.8789C27.4805 30.8789 32.4024 30.8789 37.3243 30.8789C37.3254 33.9925 37.0325 37.0784 36.4453 40.1367C32.6836 40.2923 28.9141 40.2923 25.1368 40.1367C24.7325 39.283 24.0879 38.6971 23.2032 38.3789C22.761 35.9005 22.5462 33.4005 22.5586 30.8789ZM39.3164 30.8789C43.3398 30.8789 47.3634 30.8789 51.3868 30.8789C51.2668 34.1912 50.4074 37.2967 48.8086 40.1953C45.3714 40.2539 41.9338 40.2735 38.4961 40.2539C39.0328 37.1528 39.3062 34.0277 39.3164 30.8789ZM7.44144 40.2539C12.4416 40.2343 17.4416 40.2539 22.4414 40.3125C23.2438 40.5312 23.4586 41.0194 23.086 41.7773C22.8928 41.92 22.678 42.0176 22.4414 42.0703C17.4414 42.1485 12.4415 42.1485 7.44144 42.0703C6.63907 41.8516 6.42422 41.3634 6.79691 40.6055C7.01677 40.4755 7.23162 40.3583 7.44144 40.2539ZM25.1368 42.1289C28.7305 42.1289 32.3242 42.1289 35.918 42.1289C35.4084 44.6932 34.4514 47.076 33.0469 49.2773C32.4923 50.047 31.8087 50.672 30.9961 51.1523C30.8799 50.6504 30.8407 50.1427 30.8789 49.6289C29.5095 49.6678 28.1424 49.6288 26.7774 49.5117C25.8157 47.569 24.8392 45.6354 23.8477 43.7109C24.4755 43.3378 24.9052 42.8105 25.1368 42.1289ZM38.0274 42.1289C38.1883 42.1105 38.3446 42.1301 38.4961 42.1875C38.4187 44.6994 38.3405 47.2189 38.2618 49.7461C36.9775 50.2588 35.6689 50.6885 34.336 51.0352C36.1006 48.3216 37.3311 45.3527 38.0274 42.1289ZM41.1914 42.1289C42.1289 42.1289 43.0664 42.1289 44.0039 42.1289C44.0039 43.3789 44.0039 44.6289 44.0039 45.8789C47.129 45.8789 50.2539 45.8789 53.3789 45.8789C53.3789 44.6289 53.3789 43.3789 53.3789 42.1289C54.3173 42.1095 55.2548 42.1289 56.1914 42.1875C56.7188 42.2461 57.0118 42.5391 57.0703 43.0664C57.1485 47.4414 57.1485 51.8164 57.0703 56.1914C57.0118 56.7188 56.7188 57.0117 56.1914 57.0703C51.1914 57.1485 46.1915 57.1485 41.1914 57.0703C40.6641 57.0117 40.3711 56.7188 40.3125 56.1914C40.2344 51.8164 40.2344 47.4414 40.3125 43.0664C40.3922 42.5378 40.6852 42.2254 41.1914 42.1289ZM45.8789 42.1289C47.7539 42.1289 49.6289 42.1289 51.5039 42.1289C51.5039 42.7539 51.5039 43.3789 51.5039 44.0039C49.6289 44.0039 47.7539 44.0039 45.8789 44.0039C45.8789 43.3789 45.8789 42.7539 45.8789 42.1289ZM8.37894 44.0039C12.8718 43.9649 17.3639 44.0039 21.8555 44.1211C22.754 45.9179 23.6523 47.7149 24.5508 49.5117C20.293 49.6679 16.0352 49.6679 11.7774 49.5117C11.1914 48.3398 10.6055 47.168 10.0196 45.9961C9.47821 45.8797 8.93133 45.8406 8.37894 45.8789C8.37894 45.2539 8.37894 44.6289 8.37894 44.0039ZM2.75394 47.7539C4.74766 47.7149 6.73985 47.754 8.7305 47.8711C9.31644 49.043 9.90238 50.2148 10.4883 51.3867C16.6207 51.4843 22.7535 51.5429 28.8868 51.5625C27.5371 55.0188 24.998 56.8548 21.2696 57.0703C17.3607 57.1788 13.4544 57.1397 9.55082 56.9531C6.36786 56.3094 4.23896 54.4539 3.1641 51.3867C2.89737 50.1912 2.76066 48.9803 2.75394 47.7539Z" fill="white"/>
<path opacity="0.93" fill-rule="evenodd" clip-rule="evenodd" d="M9.0821 4.62886C12.5579 4.28486 14.8039 5.76923 15.8204 9.08199C16.2213 12.5601 14.7564 14.8061 11.4258 15.8203C7.94778 16.2212 5.70168 14.7563 4.68756 11.4257C4.30073 7.93764 5.76557 5.67202 9.0821 4.62886ZM9.43366 6.62105C7.11752 7.46304 6.23861 9.10367 6.79694 11.5429C7.77912 13.5473 9.36115 14.27 11.543 13.7109C13.5474 12.7287 14.2701 11.1467 13.711 8.9648C12.8609 7.16235 11.4352 6.3811 9.43366 6.62105Z" fill="white"/>
<path opacity="0.858" fill-rule="evenodd" clip-rule="evenodd" d="M52.5586 5.80078C53.135 6.18144 53.6429 6.65019 54.082 7.20703C53.6878 7.69905 53.2385 8.12875 52.7344 8.49609C52.207 8.125 51.7579 7.67578 51.3867 7.14844C51.7566 6.68094 52.1471 6.23173 52.5586 5.80078Z" fill="white"/>
<path opacity="0.859" fill-rule="evenodd" clip-rule="evenodd" d="M49.8633 8.49609C50.4918 8.79159 50.9996 9.24082 51.3867 9.84375C51.0193 10.3479 50.5897 10.7971 50.0977 11.1914C49.5899 10.7617 49.1211 10.293 48.6914 9.78516C49.0846 9.35312 49.4753 8.92343 49.8633 8.49609Z" fill="white"/>
<path opacity="0.816" fill-rule="evenodd" clip-rule="evenodd" d="M47.2852 11.0742C47.8616 11.4549 48.3695 11.9236 48.8086 12.4805C48.4144 12.9725 47.9651 13.4021 47.4609 13.7695C46.9336 13.3984 46.4844 12.9492 46.1133 12.4219C46.4831 11.9544 46.8737 11.5052 47.2852 11.0742Z" fill="white"/>
<path fill-rule="evenodd" clip-rule="evenodd" d="M25.2539 25.2539C25.8789 25.2539 26.5039 25.2539 27.1289 25.2539C27.1289 25.8789 27.1289 26.5039 27.1289 27.1289C26.5039 27.1289 25.8789 27.1289 25.2539 27.1289C25.2539 26.5039 25.2539 25.8789 25.2539 25.2539Z" fill="white"/>
<path fill-rule="evenodd" clip-rule="evenodd" d="M29.0039 25.2539C29.6289 25.2539 30.2539 25.2539 30.8789 25.2539C30.8789 25.8789 30.8789 26.5039 30.8789 27.1289C30.2539 27.1289 29.6289 27.1289 29.0039 27.1289C29.0039 26.5039 29.0039 25.8789 29.0039 25.2539Z" fill="white"/>
<path fill-rule="evenodd" clip-rule="evenodd" d="M32.7539 25.2539C33.3789 25.2539 34.0039 25.2539 34.6289 25.2539C34.6289 25.8789 34.6289 26.5039 34.6289 27.1289C34.0039 27.1289 33.3789 27.1289 32.7539 27.1289C32.7539 26.5039 32.7539 25.8789 32.7539 25.2539Z" fill="white"/>
<path fill-rule="evenodd" clip-rule="evenodd" d="M25.2539 32.7539C25.8789 32.7539 26.5039 32.7539 27.1289 32.7539C27.1289 33.3789 27.1289 34.0039 27.1289 34.6289C26.5039 34.6289 25.8789 34.6289 25.2539 34.6289C25.2539 34.0039 25.2539 33.3789 25.2539 32.7539Z" fill="white"/>
<path fill-rule="evenodd" clip-rule="evenodd" d="M29.0039 32.7539C29.6289 32.7539 30.2539 32.7539 30.8789 32.7539C30.8789 33.3789 30.8789 34.0039 30.8789 34.6289C30.2539 34.6289 29.6289 34.6289 29.0039 34.6289C29.0039 34.0039 29.0039 33.3789 29.0039 32.7539Z" fill="white"/>
<path fill-rule="evenodd" clip-rule="evenodd" d="M32.7539 32.7539C33.3789 32.7539 34.0039 32.7539 34.6289 32.7539C34.6289 33.3789 34.6289 34.0039 34.6289 34.6289C34.0039 34.6289 33.3789 34.6289 32.7539 34.6289C32.7539 34.0039 32.7539 33.3789 32.7539 32.7539Z" fill="white"/>
<path fill-rule="evenodd" clip-rule="evenodd" d="M12.1289 45.8789C12.7539 45.8789 13.3789 45.8789 14.0039 45.8789C14.0039 46.5039 14.0039 47.1289 14.0039 47.7539C13.3789 47.7539 12.7539 47.7539 12.1289 47.7539C12.1289 47.1289 12.1289 46.5039 12.1289 45.8789Z" fill="white"/>
<path fill-rule="evenodd" clip-rule="evenodd" d="M15.8789 45.8789C16.5039 45.8789 17.1289 45.8789 17.7539 45.8789C17.7539 46.5039 17.7539 47.1289 17.7539 47.7539C17.1289 47.7539 16.5039 47.7539 15.8789 47.7539C15.8789 47.1289 15.8789 46.5039 15.8789 45.8789Z" fill="white"/>
<path fill-rule="evenodd" clip-rule="evenodd" d="M19.6289 45.8789C20.2539 45.8789 20.8789 45.8789 21.5039 45.8789C21.5039 46.5039 21.5039 47.1289 21.5039 47.7539C20.8789 47.7539 20.2539 47.7539 19.6289 47.7539C19.6289 47.1289 19.6289 46.5039 19.6289 45.8789Z" fill="white"/>
<path fill-rule="evenodd" clip-rule="evenodd" d="M49.6289 53.3789C50.2539 53.3789 50.8789 53.3789 51.5039 53.3789C51.5039 54.0039 51.5039 54.6289 51.5039 55.2539C50.8789 55.2539 50.2539 55.2539 49.6289 55.2539C49.6289 54.6289 49.6289 54.0039 49.6289 53.3789Z" fill="white"/>
<path fill-rule="evenodd" clip-rule="evenodd" d="M53.3789 53.3789C54.0039 53.3789 54.6289 53.3789 55.2539 53.3789C55.2539 54.0039 55.2539 54.6289 55.2539 55.2539C54.6289 55.2539 54.0039 55.2539 53.3789 55.2539C53.3789 54.6289 53.3789 54.0039 53.3789 53.3789Z" fill="white"/>
</g>
<defs>
<clipPath id="clip0_80_82">
<rect width="60" height="60" fill="white"/>
</clipPath>
</defs>
</svg>
