<svg width="46" height="60" viewBox="0 0 46 60" fill="none" xmlns="http://www.w3.org/2000/svg">
<path fill-rule="evenodd" clip-rule="evenodd" d="M21.4761 20.3906C21.1246 20.3906 20.8902 20.2734 20.6558 20.0391C19.9527 19.3359 20.3042 18.5156 20.4214 18.1641L21.8277 15.1172L21.9449 15L35.1871 1.75781L35.4214 1.52344L38.4683 0.234375C38.7027 0.117188 39.0542 0 39.2886 0C39.6402 0 39.9917 0.117188 40.2261 0.351562C40.8121 0.9375 40.5777 1.75781 40.4605 2.22656L39.1714 5.27344C39.1714 5.39062 39.0542 5.50781 39.0542 5.50781L25.8121 18.75C25.6949 18.8672 25.6949 18.9844 25.5777 18.9844L22.4136 20.1562C22.1792 20.2734 21.8277 20.3906 21.4761 20.3906ZM22.9996 15.8203L21.7105 18.75V18.9844C21.7105 18.8672 21.8277 18.8672 21.9449 18.8672L24.8746 17.6953L37.8824 4.6875L39.0542 1.64062C39.1714 1.64062 39.1714 1.52344 39.1714 1.40625L39.0542 1.52344L36.1246 2.8125L22.9996 15.8203Z" fill="#EC7216"/>
<path fill-rule="evenodd" clip-rule="evenodd" d="M37.5312 22.8516H37.2969C37.0625 22.8516 36.9453 22.7344 36.8281 22.5L30.9688 12.3047C30.8516 12.0703 30.8516 11.7188 31.0859 11.4844L34.0156 8.55469C34.1328 8.4375 34.3672 8.32031 34.6016 8.4375C34.8359 8.4375 35.0703 8.55469 35.1875 8.78906L39.7578 19.8047C40.1094 20.625 39.875 21.5625 39.0547 22.0312L37.8828 22.7344C37.7656 22.8516 37.6484 22.8516 37.5312 22.8516ZM32.4922 12.0703L37.7656 21.2109L38.3516 20.8594C38.5859 20.7422 38.4688 20.3906 38.4688 20.2734L34.25 10.3125L32.4922 12.0703ZM28.7422 9.84375C28.625 9.84375 28.5078 9.84375 28.3906 9.72656L18.1953 3.86719C17.9609 3.75 17.8438 3.28125 17.9609 2.92969L18.6641 1.64062C19.0156 1.17188 19.6016 0.820312 20.1875 0.820312C20.4219 0.820312 20.7734 0.9375 21.0078 1.05469L31.9062 5.625C32.1406 5.74219 32.2578 5.85938 32.375 6.09375C32.375 6.32812 32.375 6.5625 32.1406 6.79688L29.2109 9.60938C29.0938 9.72656 28.9766 9.84375 28.7422 9.84375ZM19.6016 3.04688L28.625 8.32031L30.3828 6.44531L20.4219 2.34375C20.4219 2.22656 20.3047 2.22656 20.1875 2.22656C19.9531 2.22656 19.9531 2.34375 19.9531 2.34375L19.6016 3.04688ZM22.2969 25.7812H22.1797C21.9453 25.7812 21.7109 25.5469 21.5938 25.4297L19.4844 21.0938L15.2656 18.9844C15.0312 18.8672 14.9141 18.75 14.7969 18.5156C14.7969 18.2812 14.9141 18.0469 15.0312 17.9297L16.5547 16.4062C16.6719 16.2891 16.7891 16.1719 17.0234 16.1719L21.7109 15.9375C21.9453 15.9375 22.1797 16.0547 22.2969 16.1719L22.4141 16.2891C22.5312 16.5234 22.6484 16.7578 22.5312 17.1094L21.7109 18.75V18.9844C21.7109 18.8672 21.8281 18.8672 21.9453 18.8672L23.7031 18.1641C23.9375 18.0469 24.2891 18.1641 24.4062 18.2812C24.5234 18.5156 24.6406 18.6328 24.6406 18.8672L24.4062 23.6719C24.4062 23.7891 24.4062 24.0234 24.1719 24.1406L22.7656 25.5469C22.6484 25.6641 22.4141 25.7812 22.2969 25.7812ZM16.7891 18.1641L20.3047 19.9219C20.5391 20.0391 20.6562 20.1562 20.6562 20.2734L22.4141 23.9062L23 23.3203L23.2344 19.9219L22.4141 20.1562C22.1797 20.2734 21.8281 20.3906 21.4766 20.3906C21.125 20.3906 20.8906 20.2734 20.6562 20.0391C19.9531 19.3359 20.3047 18.5156 20.4219 18.1641L20.7734 17.4609L17.375 17.5781L16.7891 18.1641ZM45.2656 54.8438H39.1719C38.8203 54.8438 38.4688 54.6094 38.4688 54.1406C38.4688 51.7969 36.5938 49.8047 34.1328 49.8047H33.8984C31.5547 49.8047 29.5625 51.7969 29.5625 54.1406C29.5625 54.6094 29.2109 54.8438 28.8594 54.8438H17.2578C16.9062 54.8438 16.5547 54.6094 16.5547 54.1406C16.5547 51.7969 14.5625 49.8047 12.1016 49.8047C9.64062 49.8047 7.64844 51.7969 7.64844 54.1406C7.64844 54.6094 7.41406 54.8438 6.94531 54.8438H0.734375C0.382812 54.8438 0.03125 54.6094 0.03125 54.1406V45.8203C0.03125 45.3516 0.382812 45.1172 0.734375 45.1172H45.2656C45.6172 45.1172 45.9688 45.3516 45.9688 45.8203V54.1406C45.9688 54.6094 45.6172 54.8438 45.2656 54.8438ZM39.875 53.4375H44.5625V46.5234H1.4375V53.4375H6.35938C6.71094 50.625 9.17188 48.3984 12.1016 48.3984C15.1484 48.3984 17.6094 50.625 17.9609 53.4375H28.1562C28.5078 50.625 30.9688 48.3984 33.8984 48.3984H34.1328C37.0625 48.3984 39.5234 50.625 39.875 53.4375Z" fill="#EC7216"/>
<path fill-rule="evenodd" clip-rule="evenodd" d="M45.2656 46.5234H28.5078C28.1562 46.5234 27.8047 46.1719 27.8047 45.8203V26.7188C27.8047 26.25 28.1562 26.0156 28.5078 26.0156H38.2344C38.9375 26.0156 39.6406 26.4844 45.0312 35.8594C45.3828 36.5625 45.7344 37.0312 45.8516 37.2656C45.8516 37.3828 45.9688 37.5 45.9688 37.6172V45.8203C45.9688 46.1719 45.6172 46.5234 45.2656 46.5234ZM29.2109 45.1172H44.5625V37.8516C44.3281 37.5 44.0938 37.1484 43.8594 36.5625C42.5703 34.4531 39.0547 28.2422 38.1172 27.4219H29.2109V45.1172Z" fill="#EC7216"/>
<path fill-rule="evenodd" clip-rule="evenodd" d="M45.2656 38.3203H28.5078C28.1562 38.3203 27.8047 37.9688 27.8047 37.6172C27.8047 37.2656 28.1562 36.9141 28.5078 36.9141H45.2656C45.6172 36.9141 45.9688 37.2656 45.9688 37.6172C45.9688 37.9688 45.6172 38.3203 45.2656 38.3203ZM12.1016 60C8.9375 60 6.35938 57.4219 6.35938 54.1406C6.35938 50.9766 8.9375 48.3984 12.1016 48.3984C15.3828 48.3984 17.9609 50.9766 17.9609 54.1406C17.9609 57.4219 15.3828 60 12.1016 60ZM12.1016 49.8047C9.75781 49.8047 7.76562 51.7969 7.76562 54.1406C7.76562 56.6016 9.75781 58.5938 12.1016 58.5938C14.5625 58.5938 16.5547 56.6016 16.5547 54.1406C16.5547 51.7969 14.5625 49.8047 12.1016 49.8047ZM34.1328 60C30.8516 60 28.2734 57.4219 28.2734 54.1406C28.2734 50.9766 30.8516 48.3984 34.1328 48.3984C37.2969 48.3984 39.875 50.9766 39.875 54.1406C39.875 57.4219 37.2969 60 34.1328 60ZM34.1328 49.8047C31.6719 49.8047 29.6797 51.7969 29.6797 54.1406C29.6797 56.6016 31.6719 58.5938 34.1328 58.5938C36.5938 58.5938 38.4688 56.6016 38.4688 54.1406C38.4688 51.7969 36.5938 49.8047 34.1328 49.8047Z" fill="#EC7216"/>
<path fill-rule="evenodd" clip-rule="evenodd" d="M12.1016 57.1875C10.4609 57.1875 9.17188 55.7812 9.17188 54.1406C9.17188 52.5 10.4609 51.2109 12.1016 51.2109C13.7422 51.2109 15.1484 52.5 15.1484 54.1406C15.1484 55.7812 13.7422 57.1875 12.1016 57.1875ZM12.1016 52.6172C11.2812 52.6172 10.5781 53.3203 10.5781 54.1406C10.5781 55.0781 11.2812 55.7812 12.1016 55.7812C13.0391 55.7812 13.7422 55.0781 13.7422 54.1406C13.7422 53.3203 13.0391 52.6172 12.1016 52.6172ZM34.1328 57.1875C32.4922 57.1875 31.0859 55.7812 31.0859 54.1406C31.0859 52.5 32.4922 51.2109 34.1328 51.2109C35.7734 51.2109 37.0625 52.5 37.0625 54.1406C37.0625 55.7812 35.7734 57.1875 34.1328 57.1875ZM34.1328 52.6172C33.1953 52.6172 32.4922 53.3203 32.4922 54.1406C32.4922 55.0781 33.1953 55.7812 34.1328 55.7812C34.9531 55.7812 35.6562 55.0781 35.6562 54.1406C35.6562 53.3203 34.9531 52.6172 34.1328 52.6172ZM9.99219 42.0703H6.94531C6.59375 42.0703 6.125 41.7188 6.125 41.25V38.4375C6.125 38.0859 6.47656 37.7344 6.82812 37.7344H10.1094C10.4609 37.7344 10.8125 38.0859 10.8125 38.4375V41.25C10.8125 41.7188 10.4609 42.0703 9.99219 42.0703ZM7.53125 40.6641H9.40625V39.1406H7.53125V40.6641Z" fill="#EC7216"/>
<path fill-rule="evenodd" clip-rule="evenodd" d="M13.1562 46.5234H3.78125C3.3125 46.5234 2.96094 46.0547 2.96094 45.5859V38.5547C2.96094 38.0859 3.3125 37.7344 3.78125 37.7344H13.1562C13.625 37.7344 13.9766 38.0859 13.9766 38.5547V45.5859C13.9766 46.0547 13.625 46.5234 13.1562 46.5234ZM4.36719 45.1172H12.5703V39.1406H4.36719V45.1172ZM22.1797 42.0703H19.25C18.7812 42.0703 18.4297 41.7188 18.4297 41.25V38.4375C18.4297 38.0859 18.6641 37.7344 19.1328 37.7344H22.2969C22.6484 37.7344 23 38.0859 23 38.4375V41.25C23 41.7188 22.6484 42.0703 22.1797 42.0703ZM19.8359 40.6641H21.5938V39.1406H19.8359V40.6641Z" fill="#EC7216"/>
<path fill-rule="evenodd" clip-rule="evenodd" d="M25.3438 46.5234H16.0859C15.6172 46.5234 15.1484 46.0547 15.1484 45.5859V38.5547C15.1484 38.0859 15.6172 37.7344 16.0859 37.7344H25.3438C25.8125 37.7344 26.2812 38.0859 26.2812 38.5547V45.5859C26.2812 46.0547 25.8125 46.5234 25.3438 46.5234ZM16.5547 45.1172H24.875V39.1406H16.5547V45.1172ZM9.99219 31.875H6.94531C6.59375 31.875 6.125 31.5234 6.125 31.0547V28.2422C6.125 27.7734 6.47656 27.5391 6.82812 27.5391H10.1094C10.4609 27.5391 10.8125 27.7734 10.8125 28.2422V31.0547C10.8125 31.5234 10.4609 31.875 9.99219 31.875ZM7.53125 30.4688H9.40625V28.9453H7.53125V30.4688Z" fill="#EC7216"/>
<path fill-rule="evenodd" clip-rule="evenodd" d="M13.1562 36.2109H3.78125C3.3125 36.2109 2.96094 35.8594 2.96094 35.3906V28.3594C2.96094 27.8906 3.3125 27.5391 3.78125 27.5391H13.1562C13.625 27.5391 13.9766 27.8906 13.9766 28.3594V35.3906C13.9766 35.8594 13.625 36.2109 13.1562 36.2109ZM4.36719 34.8047H12.5703V28.9453H4.36719V34.8047ZM22.1797 31.875H19.25C18.7812 31.875 18.4297 31.5234 18.4297 31.0547V28.2422C18.4297 27.7734 18.6641 27.5391 19.1328 27.5391H22.2969C22.6484 27.5391 23 27.7734 23 28.2422V31.0547C23 31.5234 22.6484 31.875 22.1797 31.875ZM19.8359 30.4688H21.5938V28.9453H19.8359V30.4688Z" fill="#EC7216"/>
<path fill-rule="evenodd" clip-rule="evenodd" d="M25.3438 36.2109H16.0859C15.6172 36.2109 15.1484 35.8594 15.1484 35.3906V28.3594C15.1484 27.8906 15.6172 27.5391 16.0859 27.5391H25.3438C25.8125 27.5391 26.2812 27.8906 26.2812 28.3594V35.3906C26.2812 35.8594 25.8125 36.2109 25.3438 36.2109ZM16.5547 34.8047H24.875V28.9453H16.5547V34.8047ZM43.1562 60H3.07812C2.72656 60 2.375 59.6484 2.375 59.2969C2.375 58.9453 2.72656 58.5938 3.07812 58.5938H43.1562C43.5078 58.5938 43.8594 58.9453 43.8594 59.2969C43.8594 59.6484 43.5078 60 43.1562 60Z" fill="#EC7216"/>
</svg>
