<svg width="36" height="36" viewBox="0 0 36 36" fill="none" xmlns="http://www.w3.org/2000/svg">
<g clip-path="url(#clip0_97_1256)">
<path opacity="0.906" fill-rule="evenodd" clip-rule="evenodd" d="M12.6914 0.457031C13.6055 0.457031 14.5195 0.457031 15.4336 0.457031C14.7653 2.30929 14.0622 4.14913 13.3242 5.97656C15.2475 5.95605 17.1694 5.96777 19.0898 6.01172C19.2465 5.96119 19.3754 5.86744 19.4766 5.73047C19.8164 5.28516 20.1563 4.83984 20.4961 4.39453C21.1758 4.30078 21.8554 4.30078 22.5352 4.39453C22.0942 5.25311 21.6723 6.1203 21.2695 6.99609C21.6157 7.1898 21.9321 7.42416 22.2188 7.69922C22.2743 7.91958 22.2509 8.13052 22.1484 8.33203C21.8734 8.54585 21.5804 8.73337 21.2695 8.89453C21.7504 9.7856 22.1723 10.6997 22.5352 11.6367C21.8785 11.6484 21.2222 11.6367 20.5664 11.6016C20.1542 11.1167 19.7674 10.6128 19.4063 10.0898C19.339 9.99183 19.2453 9.94493 19.125 9.94922C17.2164 10.0181 15.3062 10.0415 13.3945 10.0195C14.0717 11.8545 14.7983 13.671 15.5742 15.4688C14.6398 15.5924 13.7023 15.604 12.7617 15.5039C11.4961 13.6992 10.2305 11.8946 8.96485 10.0898C7.16295 10.173 5.60434 9.61052 4.28906 8.40234C4.24219 8.16799 4.24219 7.93357 4.28906 7.69922C5.13551 6.84818 6.15505 6.32084 7.34766 6.11719C7.88632 6.05569 8.42534 5.99709 8.96485 5.94141C10.2088 4.11202 11.451 2.2839 12.6914 0.457031ZM13.1836 1.23047C13.5593 1.2188 13.9343 1.23051 14.3086 1.26562C13.6782 2.84071 13.0688 4.42274 12.4805 6.01172C11.6364 6.02343 10.7926 6.01171 9.94922 5.97656C11.0367 4.3986 12.1148 2.81657 13.1836 1.23047ZM20.9883 5.09766C21.0848 5.08664 21.1786 5.09836 21.2695 5.13281C21.007 5.64649 20.7375 6.1504 20.4609 6.64453C20.3278 6.59557 20.199 6.53698 20.0742 6.46875C20.0074 6.4183 19.9957 6.3597 20.0391 6.29297C20.3899 5.91801 20.7063 5.51957 20.9883 5.09766ZM8.33203 6.78516C11.8477 6.77344 15.3634 6.78516 18.8789 6.82031C19.6622 7.15331 20.4122 7.54003 21.1289 7.98047C20.4024 8.36719 19.6758 8.75391 18.9492 9.14062C15.27 9.2378 11.5903 9.26121 7.91016 9.21094C6.86996 9.10308 5.9559 8.71636 5.16797 8.05078C5.72234 7.52231 6.37859 7.17075 7.13672 6.99609C7.54278 6.9117 7.94124 6.84139 8.33203 6.78516ZM20.4258 9.24609C20.7319 9.72858 21.0131 10.2325 21.2695 10.7578C21.1758 10.8047 21.082 10.8047 20.9883 10.7578C20.6601 10.3594 20.3321 9.96096 20.0039 9.5625C20.1619 9.47271 20.3025 9.36724 20.4258 9.24609ZM9.94922 10.0898C10.7817 9.99668 11.6255 9.99668 12.4805 10.0898C13.1042 11.63 13.737 13.1652 14.3789 14.6953C13.9784 14.7537 13.5799 14.7419 13.1836 14.6602C12.1212 13.1197 11.0431 11.5962 9.94922 10.0898Z" fill="white"/>
<path opacity="0.866" fill-rule="evenodd" clip-rule="evenodd" d="M23.168 5.87109C23.8973 6.15379 24.577 6.52878 25.207 6.99609C25.0677 7.22883 24.9036 7.43977 24.7148 7.62891C24.0873 7.25738 23.4779 6.87065 22.8867 6.46875C22.9719 6.26344 23.0656 6.06422 23.168 5.87109Z" fill="white"/>
<path opacity="0.882" fill-rule="evenodd" clip-rule="evenodd" d="M9.03516 7.62891C9.3633 7.62891 9.69138 7.62891 10.0195 7.62891C10.0195 7.88674 10.0195 8.14451 10.0195 8.40234C9.69138 8.40234 9.3633 8.40234 9.03516 8.40234C9.03516 8.14451 9.03516 7.88674 9.03516 7.62891Z" fill="white"/>
<path opacity="0.937" fill-rule="evenodd" clip-rule="evenodd" d="M11.0039 7.62891C11.9883 7.62891 12.9727 7.62891 13.957 7.62891C13.9516 7.89012 13.975 8.14788 14.0273 8.40234C13.0196 8.40234 12.0117 8.40234 11.0039 8.40234C11.0039 8.14451 11.0039 7.88674 11.0039 7.62891Z" fill="white"/>
<path opacity="0.846" fill-rule="evenodd" clip-rule="evenodd" d="M26.8242 8.40215C26.8982 8.39168 26.9685 8.40335 27.0352 8.43731C27.5792 8.93428 28.0714 9.47329 28.5117 10.0545C28.3085 10.2723 28.0741 10.4129 27.8086 10.4764C27.3772 9.97462 26.9202 9.49418 26.4375 9.03496C26.4912 8.78838 26.6202 8.57744 26.8242 8.40215Z" fill="white"/>
<path opacity="0.771" fill-rule="evenodd" clip-rule="evenodd" d="M5.02734 9.73828C5.25746 9.87427 5.46839 10.0384 5.66016 10.2305C5.57573 10.3999 5.45854 10.5405 5.30859 10.6523C5.08783 10.5136 4.8769 10.3612 4.67578 10.1953C4.7812 10.0316 4.89839 9.87926 5.02734 9.73828Z" fill="white"/>
<path opacity="0.862" fill-rule="evenodd" clip-rule="evenodd" d="M29.5664 11.9182C29.6703 11.8998 29.7641 11.9232 29.8477 11.9885C30.2115 12.6455 30.5162 13.3252 30.7617 14.0276C30.5288 14.0622 30.3062 14.1325 30.0938 14.2385C29.7464 13.6026 29.4066 12.958 29.0742 12.3049C29.2409 12.1753 29.405 12.0464 29.5664 11.9182Z" fill="white"/>
<path opacity="0.866" fill-rule="evenodd" clip-rule="evenodd" d="M3.41016 12.0586C3.69615 12.0961 3.93052 12.225 4.11328 12.4453C3.7824 13.0716 3.50115 13.7161 3.26953 14.3789C2.95999 14.3548 2.70219 14.2376 2.49609 14.0273C2.76312 13.3527 3.0678 12.6965 3.41016 12.0586Z" fill="white"/>
<path opacity="0.921" fill-rule="evenodd" clip-rule="evenodd" d="M7.06641 15.6445C7.88674 15.6445 8.70701 15.6445 9.52734 15.6445C9.46631 16.5359 9.396 17.4265 9.31641 18.3164C9.12888 18.3164 8.94143 18.3164 8.75391 18.3164C8.75391 18.668 8.75391 19.0195 8.75391 19.3711C8.56498 19.3596 8.37745 19.3713 8.19141 19.4062C7.99165 19.7236 8.08545 19.8643 8.47266 19.8281C8.51956 19.7578 8.56638 19.6875 8.61328 19.6172C8.87006 19.5821 9.12783 19.5704 9.38672 19.582C9.40352 19.7203 9.38011 19.8493 9.31641 19.9688C11.4694 21.6295 13.6022 23.317 15.7148 25.0312C15.8889 25.212 16.0999 25.3175 16.3477 25.3477C16.3477 28.7227 16.3477 32.0977 16.3477 35.4727C11.0039 35.4727 5.66016 35.4727 0.316406 35.4727C0.316406 32.0977 0.316406 28.7227 0.316406 25.3477C0.577768 25.2754 0.812145 25.1465 1.01953 24.9609C3.09375 23.3086 5.16797 21.6562 7.24219 20.0039C7.16562 19.4216 7.36488 18.9763 7.83984 18.668C7.90678 18.5593 7.9302 18.4421 7.91016 18.3164C7.72263 18.3164 7.53518 18.3164 7.34766 18.3164C7.26307 17.4236 7.16934 16.5329 7.06641 15.6445ZM7.98047 16.418C8.21482 16.418 8.44924 16.418 8.68359 16.418C8.63796 16.7439 8.60281 17.072 8.57812 17.4023C8.41071 17.4681 8.23493 17.4915 8.05078 17.4727C8.04284 17.1198 8.01935 16.7683 7.98047 16.418ZM7.83984 20.5664C8.15639 20.7501 8.4728 20.7501 8.78906 20.5664C10.7738 22.1738 12.7777 23.7559 14.8008 25.3125C14.403 25.3476 14.0046 25.3593 13.6055 25.3477C13.6055 25.7226 13.6055 26.0977 13.6055 26.4727C13.2539 26.4727 12.9023 26.4727 12.5508 26.4727C12.5996 25.9786 12.5176 25.5099 12.3047 25.0664C11.625 24.4102 10.9453 24.4102 10.2656 25.0664C10.2187 25.1601 10.1719 25.2539 10.125 25.3477C10.0899 25.7219 10.0782 26.0969 10.0898 26.4727C8.91794 26.4727 7.74612 26.4727 6.57422 26.4727C6.63603 25.9517 6.554 25.4595 6.32812 24.9961C5.83667 24.5379 5.28589 24.4558 4.67578 24.75C4.1547 25.2033 3.9672 25.7775 4.11328 26.4727C3.76172 26.4727 3.41016 26.4727 3.05859 26.4727C3.05859 26.0977 3.05859 25.7226 3.05859 25.3477C2.65947 25.3593 2.26103 25.3476 1.86328 25.3125C3.86863 23.74 5.86082 22.158 7.83984 20.5664ZM5.23828 25.3477C5.42103 25.3511 5.57338 25.4214 5.69531 25.5586C5.79146 25.8539 5.82661 26.1586 5.80078 26.4727C5.51953 26.4727 5.23828 26.4727 4.95703 26.4727C4.94538 26.1671 4.9571 25.8624 4.99219 25.5586C5.0727 25.4787 5.15473 25.4084 5.23828 25.3477ZM11.2148 25.3477C11.407 25.3792 11.5593 25.4729 11.6719 25.6289C11.707 25.9092 11.7187 26.1904 11.707 26.4727C11.4258 26.4727 11.1445 26.4727 10.8633 26.4727C10.8516 26.1904 10.8634 25.9092 10.8984 25.6289C10.9967 25.5185 11.1021 25.4247 11.2148 25.3477ZM1.08984 26.1211C1.46484 26.1211 1.83985 26.1211 2.21484 26.1211C2.21484 26.5196 2.21484 26.9179 2.21484 27.3164C6.26953 27.3164 10.3242 27.3164 14.3789 27.3164C14.3789 26.9179 14.3789 26.5196 14.3789 26.1211C14.7774 26.1211 15.1758 26.1211 15.5742 26.1211C15.5742 28.9805 15.5742 31.8398 15.5742 34.6992C10.7461 34.6992 5.91797 34.6992 1.08984 34.6992C1.08984 31.8398 1.08984 28.9805 1.08984 26.1211Z" fill="white"/>
<path opacity="0.866" fill-rule="evenodd" clip-rule="evenodd" d="M31.1836 16.0664C31.2773 16.0664 31.3711 16.0664 31.4648 16.0664C31.5738 16.6733 31.6676 17.2827 31.7461 17.8945C31.4662 17.9312 31.1849 17.9546 30.9023 17.9648C30.8805 17.3769 30.7867 16.8026 30.6211 16.2422C30.8235 16.2038 31.011 16.1452 31.1836 16.0664Z" fill="white"/>
<path opacity="0.874" fill-rule="evenodd" clip-rule="evenodd" d="M1.79297 16.207C2.07792 16.2593 2.35917 16.3297 2.63672 16.418C2.46626 17.136 2.34908 17.8626 2.28516 18.5977C2.02956 18.5545 1.77174 18.531 1.51172 18.5273C1.56602 17.7488 1.65978 16.9754 1.79297 16.207Z" fill="white"/>
<path opacity="0.919" fill-rule="evenodd" clip-rule="evenodd" d="M22.6753 18.1758C26.9878 18.1758 31.3003 18.1758 35.6128 18.1758C35.6128 21.1523 35.6128 24.1289 35.6128 27.1055C35.1206 27.1055 34.6284 27.1055 34.1362 27.1055C33.9361 27.926 33.4087 28.3479 32.5542 28.3711C31.7721 28.3032 31.2448 27.9048 30.9722 27.1758C30.1284 27.0821 29.2847 27.0821 28.4409 27.1758C28.0398 28.1732 27.3133 28.5365 26.2612 28.2656C25.7482 28.0691 25.4202 27.7058 25.2769 27.1758C24.2691 27.0821 23.2612 27.0821 22.2534 27.1758C22.0277 27.9291 21.5238 28.3275 20.7417 28.3711C19.9186 28.3329 19.4382 27.911 19.3003 27.1055C18.9956 27.1055 18.6909 27.1055 18.3862 27.1055C18.3745 25.7927 18.3862 24.4803 18.4214 23.168C18.9136 22.2773 19.4058 21.3867 19.898 20.4961C20.8181 20.4266 21.7439 20.4031 22.6753 20.4258C22.6753 19.6758 22.6753 18.9258 22.6753 18.1758ZM23.4487 19.0195C27.2456 19.0195 31.0425 19.0195 34.8394 19.0195C34.8394 21.4571 34.8394 23.8945 34.8394 26.332C34.605 26.332 34.3706 26.332 34.1362 26.332C33.7976 25.3069 33.0945 24.9202 32.0269 25.1719C31.5208 25.385 31.1692 25.7483 30.9722 26.2617C30.1284 26.3554 29.2847 26.3554 28.4409 26.2617C27.8966 25.1076 27.0528 24.8146 25.9097 25.3828C25.6032 25.61 25.3922 25.9029 25.2769 26.2617C24.6693 26.3319 24.0599 26.3553 23.4487 26.332C23.4487 23.8945 23.4487 21.4571 23.4487 19.0195ZM20.4253 21.1992C21.1753 21.1992 21.9253 21.1992 22.6753 21.1992C22.6753 21.7851 22.6753 22.3711 22.6753 22.957C21.6196 22.9804 20.5649 22.957 19.5112 22.8867C19.8535 22.3429 20.1581 21.7804 20.4253 21.1992ZM19.1597 23.7305C20.3316 23.7305 21.5034 23.7305 22.6753 23.7305C22.6753 24.5976 22.6753 25.4649 22.6753 26.332C22.5096 26.3435 22.3455 26.3318 22.1831 26.2969C21.6327 25.3401 20.8593 25.1056 19.8628 25.5938C19.6309 25.767 19.4668 25.9896 19.3706 26.2617C19.3126 26.324 19.2423 26.3474 19.1597 26.332C19.1597 25.4649 19.1597 24.5976 19.1597 23.7305ZM26.6128 25.9102C27.4082 25.8735 27.7481 26.2485 27.6323 27.0352C27.3987 27.4857 27.0355 27.6381 26.5425 27.4922C26.0194 27.1671 25.9139 26.7336 26.2261 26.1914C26.3535 26.0876 26.4824 25.9938 26.6128 25.9102ZM32.3081 25.9102C33.1072 25.877 33.4471 26.252 33.3276 27.0352C33.094 27.4857 32.7308 27.6381 32.2378 27.4922C31.7248 27.1605 31.6193 26.7269 31.9214 26.1914C32.0488 26.0876 32.1777 25.9938 32.3081 25.9102ZM20.6362 26.1211C21.374 26.2374 21.5966 26.6358 21.3042 27.3164C20.8318 27.6471 20.4334 27.5768 20.1089 27.1055C19.9972 26.6202 20.173 26.2921 20.6362 26.1211Z" fill="white"/>
<path opacity="0.939" fill-rule="evenodd" clip-rule="evenodd" d="M25.0664 20.0742C25.3242 20.0742 25.582 20.0742 25.8398 20.0742C25.8398 21.2929 25.8398 22.5117 25.8398 23.7305C25.582 23.7305 25.3242 23.7305 25.0664 23.7305C25.0664 22.5117 25.0664 21.2929 25.0664 20.0742Z" fill="white"/>
<path opacity="0.939" fill-rule="evenodd" clip-rule="evenodd" d="M27.5273 20.0742C27.7852 20.0742 28.0429 20.0742 28.3008 20.0742C28.3008 21.2929 28.3008 22.5117 28.3008 23.7305C28.0429 23.7305 27.7852 23.7305 27.5273 23.7305C27.5273 22.5117 27.5273 21.2929 27.5273 20.0742Z" fill="white"/>
<path opacity="0.939" fill-rule="evenodd" clip-rule="evenodd" d="M29.9883 20.0742C30.2461 20.0742 30.5039 20.0742 30.7617 20.0742C30.7617 21.2929 30.7617 22.5117 30.7617 23.7305C30.5039 23.7305 30.2461 23.7305 29.9883 23.7305C29.9883 22.5117 29.9883 21.2929 29.9883 20.0742Z" fill="white"/>
<path opacity="0.861" fill-rule="evenodd" clip-rule="evenodd" d="M32.4492 20.0742C32.7305 20.0742 33.0117 20.0742 33.293 20.0742C33.293 21.2929 33.293 22.5117 33.293 23.7305C33.0117 23.7305 32.7305 23.7305 32.4492 23.7305C32.4492 22.5117 32.4492 21.2929 32.4492 20.0742Z" fill="white"/>
<path opacity="0.873" fill-rule="evenodd" clip-rule="evenodd" d="M2.07422 20.6368C2.16718 20.6249 2.24921 20.6483 2.32031 20.7071C2.39641 21.4391 2.50188 22.1656 2.63672 22.8868C2.39697 22.9066 2.1626 22.9535 1.93359 23.0274C1.69478 22.2745 1.55416 21.5011 1.51172 20.7071C1.7146 20.7286 1.9021 20.7052 2.07422 20.6368Z" fill="white"/>
<path opacity="0.932" fill-rule="evenodd" clip-rule="evenodd" d="M2.35547 28.4414C2.61328 28.4414 2.87109 28.4414 3.12891 28.4414C3.12891 30.1289 3.12891 31.8164 3.12891 33.5039C2.87109 33.5039 2.61328 33.5039 2.35547 33.5039C2.35547 31.8164 2.35547 30.1289 2.35547 28.4414Z" fill="white"/>
<path opacity="0.932" fill-rule="evenodd" clip-rule="evenodd" d="M4.60547 28.4414C4.86328 28.4414 5.12109 28.4414 5.37891 28.4414C5.37891 30.1289 5.37891 31.8164 5.37891 33.5039C5.12109 33.5039 4.86328 33.5039 4.60547 33.5039C4.60547 31.8164 4.60547 30.1289 4.60547 28.4414Z" fill="white"/>
<path opacity="0.854" fill-rule="evenodd" clip-rule="evenodd" d="M6.78516 28.4414C7.06641 28.4414 7.34766 28.4414 7.62891 28.4414C7.62891 30.1289 7.62891 31.8164 7.62891 33.5039C7.34766 33.5039 7.06641 33.5039 6.78516 33.5039C6.78516 31.8164 6.78516 30.1289 6.78516 28.4414Z" fill="white"/>
<path opacity="0.932" fill-rule="evenodd" clip-rule="evenodd" d="M9.03516 28.4414C9.29299 28.4414 9.55076 28.4414 9.80859 28.4414C9.80859 30.1289 9.80859 31.8164 9.80859 33.5039C9.55076 33.5039 9.29299 33.5039 9.03516 33.5039C9.03516 31.8164 9.03516 30.1289 9.03516 28.4414Z" fill="white"/>
<path opacity="0.932" fill-rule="evenodd" clip-rule="evenodd" d="M11.2852 28.4414C11.543 28.4414 11.8008 28.4414 12.0586 28.4414C12.0586 30.1289 12.0586 31.8164 12.0586 33.5039C11.8008 33.5039 11.543 33.5039 11.2852 33.5039C11.2852 31.8164 11.2852 30.1289 11.2852 28.4414Z" fill="white"/>
<path opacity="0.854" fill-rule="evenodd" clip-rule="evenodd" d="M13.4648 28.4414C13.7461 28.4414 14.0273 28.4414 14.3086 28.4414C14.3086 30.1289 14.3086 31.8164 14.3086 33.5039C14.0273 33.5039 13.7461 33.5039 13.4648 33.5039C13.4648 31.8164 13.4648 30.1289 13.4648 28.4414Z" fill="white"/>
<path opacity="0.866" fill-rule="evenodd" clip-rule="evenodd" d="M27.8789 28.4414C28.1338 28.5694 28.3681 28.7336 28.582 28.9336C28.0903 29.5424 27.5512 30.1049 26.9648 30.6211C26.8015 30.4365 26.6374 30.2489 26.4727 30.0586C26.9955 29.5597 27.4642 29.0206 27.8789 28.4414Z" fill="white"/>
<path opacity="0.862" fill-rule="evenodd" clip-rule="evenodd" d="M24.7148 31.3945C24.9726 31.5198 25.1601 31.719 25.2773 31.9922C24.6618 32.4989 23.9821 32.8738 23.2383 33.1172C23.0835 32.9145 23.0014 32.6919 22.9922 32.4492C23.6003 32.14 24.1745 31.7884 24.7148 31.3945Z" fill="white"/>
<path opacity="0.874" fill-rule="evenodd" clip-rule="evenodd" d="M20.918 33.2227C21.0478 33.4191 21.1416 33.6418 21.1992 33.8906C21.189 33.9449 21.1656 33.9918 21.1289 34.0312C20.4225 34.2521 19.7078 34.4279 18.9844 34.5586C18.9256 34.2863 18.867 34.0167 18.8086 33.75C19.5367 33.6383 20.2398 33.4625 20.918 33.2227Z" fill="white"/>
</g>
<defs>
<clipPath id="clip0_97_1256">
<rect width="36" height="36" fill="white"/>
</clipPath>
</defs>
</svg>
