<svg width="18" height="28" viewBox="0 0 18 28" fill="none" xmlns="http://www.w3.org/2000/svg">
<path fill-rule="evenodd" clip-rule="evenodd" d="M12.9355 14.8339C13.0226 14.8339 13.1096 14.8564 13.1855 14.9021C13.328 14.9869 13.4063 15.1378 13.3897 15.2929C13.1404 17.553 12.4996 19.6595 11.486 21.5542C10.5904 23.2277 9.41853 24.6967 7.98405 25.9454C14.9849 22.5149 17.8355 15.1958 16.8742 9.28258C16.2706 5.57078 13.8636 1.60382 8.91689 1.60382C4.64667 1.6038 1.17319 4.78771 1.17319 8.70107C1.17324 12.6137 4.64664 15.7976 8.91689 15.7976C10.247 15.7976 11.5596 15.4829 12.7124 14.8876C12.7821 14.8513 12.8587 14.834 12.9355 14.8339L12.9355 14.8339ZM5.0233 27.935C4.8485 27.935 4.68387 27.8422 4.60871 27.6907C4.5138 27.4999 4.58812 27.2745 4.78119 27.1628C10.0334 24.1522 11.8349 19.5536 12.3824 15.9702C11.2946 16.4052 10.1124 16.6329 8.91688 16.6329C4.14429 16.6329 0.261719 13.0741 0.261719 8.7011C0.26177 4.3273 4.14424 0.768555 8.91688 0.768555C11.2977 0.768508 13.3912 1.62124 14.9705 3.23387C16.4154 4.70866 17.3853 6.75784 17.7762 9.15936C18.9243 16.2232 14.8914 25.1978 5.15624 27.9169C5.11197 27.9292 5.0676 27.935 5.0233 27.935V27.935Z" fill="#EC7216"/>
</svg>
