<svg width="50" height="50" viewBox="0 0 50 50" fill="none" xmlns="http://www.w3.org/2000/svg">
<path d="M17.0374 7.23495C17.1357 7.40521 17.2946 7.53214 17.4823 7.59043C17.6701 7.64871 17.8729 7.63406 18.0504 7.5494C19.868 6.68202 21.8207 6.16386 23.854 6.00927C24.0504 5.99435 24.2339 5.9058 24.3678 5.76135C24.5016 5.61691 24.576 5.42722 24.576 5.23026V1.56268C24.576 1.45592 24.5541 1.35029 24.5116 1.25232C24.4692 1.15435 24.4071 1.06612 24.3293 0.993071C24.2514 0.92002 24.1594 0.8637 24.0589 0.827586C23.9584 0.791472 23.8516 0.77633 23.7451 0.783095C20.873 0.966493 18.1126 1.70575 15.5404 2.98036C15.4447 3.02779 15.3598 3.09432 15.2909 3.17584C15.2219 3.25735 15.1704 3.35213 15.1395 3.45432C15.1086 3.55651 15.099 3.66395 15.1112 3.77001C15.1234 3.87607 15.1573 3.9785 15.2106 4.07099L17.0374 7.23495ZM23.0135 2.41249V4.5204C21.2879 4.7203 19.6193 5.16298 18.0367 5.84081L16.9886 4.02548C18.9039 3.17284 20.9239 2.63202 23.0135 2.41249ZM5.71119 32.0125C5.75852 32.1083 5.82499 32.1934 5.9065 32.2624C5.98801 32.3315 6.08282 32.3832 6.18507 32.4141C6.28733 32.4451 6.39485 32.4548 6.501 32.4426C6.60715 32.4304 6.70966 32.3966 6.80221 32.3432L9.98111 30.5079C10.1514 30.4096 10.2783 30.2508 10.3366 30.063C10.3949 29.8753 10.3803 29.6724 10.2957 29.495C9.42604 27.6714 8.90533 25.7205 8.74771 23.6967C8.73245 23.5006 8.64376 23.3174 8.49937 23.1838C8.35498 23.0503 8.16551 22.9761 7.96881 22.9761H4.30016C4.19336 22.9761 4.08771 22.998 3.98972 23.0405C3.89173 23.0829 3.80348 23.145 3.73043 23.2229C3.65737 23.3008 3.60106 23.3929 3.56497 23.4934C3.52887 23.5939 3.51376 23.7007 3.52057 23.8073C3.70494 26.6821 4.44205 29.4427 5.71119 32.0125ZM7.26041 24.5385C7.46108 26.2504 7.90791 27.9243 8.58707 29.5085L6.75787 30.5645C5.90895 28.6506 5.36988 26.6301 5.15016 24.5385H7.26041ZM4.30025 21.8417H7.98326C8.17878 21.8417 8.36719 21.7684 8.51129 21.6362C8.65538 21.5041 8.74469 21.3227 8.76158 21.1279C8.93746 19.0992 9.46227 17.1502 10.3214 15.335C10.4054 15.1577 10.4195 14.9553 10.361 14.768C10.3026 14.5807 10.1758 14.4223 10.0059 14.3242L6.80797 12.4779C6.71548 12.4245 6.61303 12.3906 6.50693 12.3784C6.40084 12.3661 6.29336 12.3757 6.19113 12.4067C6.0889 12.4376 5.9941 12.4891 5.91257 12.5581C5.83105 12.6271 5.76454 12.7121 5.71715 12.8078C4.444 15.379 3.70504 18.1388 3.52057 21.0103C3.5137 21.1169 3.52878 21.2238 3.56485 21.3244C3.60093 21.4249 3.65725 21.517 3.73033 21.5949C3.8034 21.6728 3.89168 21.7349 3.98971 21.7774C4.08774 21.8198 4.19343 21.8417 4.30025 21.8417ZM6.76285 14.256L8.61344 15.3245C7.94176 16.9008 7.49488 18.5617 7.28043 20.2792H5.15025C5.37047 18.1901 5.91109 16.1706 6.76285 14.256ZM48.6295 24.4475C48.4267 24.0298 48.0121 23.7703 47.5471 23.7702H46.7776C46.8057 23.317 46.8199 22.8617 46.8199 22.4089C46.8199 16.8631 44.7265 11.5869 40.9254 7.55233C37.1411 3.53544 32.0327 1.13124 26.5411 0.782411C26.4345 0.775674 26.3278 0.790837 26.2273 0.826964C26.1269 0.863092 26.0349 0.919418 25.9571 0.992467C25.8792 1.06552 25.8172 1.15374 25.7748 1.25169C25.7323 1.34965 25.7104 1.45526 25.7104 1.562V5.23056C25.7104 5.42736 25.7847 5.61692 25.9184 5.76133C26.0521 5.90574 26.2354 5.99436 26.4316 6.00946C34.9353 6.66552 41.5966 13.8689 41.5966 22.4088C41.5966 22.8619 41.578 23.3175 41.5408 23.77H41.0412C40.5764 23.77 40.1617 24.0295 39.9589 24.4473C39.7562 24.8649 39.8088 25.3513 40.0963 25.7163L43.3496 29.8484C43.4618 29.9917 43.6053 30.1075 43.769 30.1869C43.9328 30.2664 44.1125 30.3074 44.2945 30.3068C44.6654 30.3068 45.0096 30.1396 45.239 29.8482L48.4921 25.7163C48.7795 25.3515 48.8322 24.8652 48.6295 24.4475ZM44.2941 28.5227L41.7827 25.3328H42.2454C42.4359 25.3328 42.6198 25.2632 42.7626 25.1371C42.9054 25.0109 42.9972 24.837 43.0207 24.6479C43.1127 23.9052 43.1589 23.1574 43.159 22.409C43.159 17.8429 41.4475 13.4878 38.3396 10.1461C35.4137 6.99999 31.5067 5.02001 27.2728 4.52206V2.41181C37.423 3.4789 45.2575 12.106 45.2575 22.409C45.2575 23.097 45.2223 23.7912 45.1529 24.4723C45.1418 24.581 45.1537 24.6908 45.1877 24.7946C45.2217 24.8985 45.2772 24.994 45.3504 25.0751C45.4236 25.1562 45.5131 25.2211 45.6129 25.2654C45.7128 25.3098 45.8209 25.3328 45.9301 25.3328H46.8057L44.2941 28.5227ZM7.37672 11.4966L10.5636 13.3365C10.7344 13.4352 10.9362 13.4656 11.1285 13.4216C11.3208 13.3777 11.4893 13.2625 11.6002 13.0994C12.7433 11.419 14.1646 9.98554 15.8244 8.83866C15.9858 8.72709 16.0994 8.55884 16.1425 8.36736C16.1855 8.17589 16.1549 7.97522 16.0568 7.80526L14.2294 4.64013C14.1759 4.54754 14.104 4.46692 14.0181 4.40325C13.9322 4.33957 13.8342 4.29419 13.73 4.26993C13.6259 4.24566 13.5179 4.24302 13.4127 4.26216C13.3076 4.28131 13.2074 4.32184 13.1185 4.38124C10.7324 5.97684 8.71344 7.99706 7.11754 10.3859C7.05818 10.4748 7.0177 10.575 6.99859 10.6802C6.97948 10.7853 6.98216 10.8933 7.00645 10.9974C7.03075 11.1015 7.07614 11.1995 7.13983 11.2854C7.20352 11.3712 7.28414 11.4431 7.37672 11.4966ZM13.3021 6.15878L14.3508 7.97528C12.9737 9.01093 11.7595 10.2355 10.7291 11.6278L8.89498 10.5689C10.1254 8.87832 11.6123 7.39032 13.3021 6.15878ZM36.0331 32.6285L28.5008 37.0156C28.2143 37.1824 27.9239 37.3111 27.6248 37.4024C27.7192 37.2111 27.7943 37.0108 27.849 36.8045C28.2496 35.3093 27.3628 33.7489 25.8301 33.2521C25.7967 33.2413 25.7625 33.2327 25.7279 33.2265C23.5724 32.8377 21.4408 32.067 19.7279 31.4477C19.1306 31.2318 18.5665 31.0278 18.0857 30.872C16.1151 30.2326 14.3442 31.018 12.8717 31.8706L7.36656 35.058L6.89439 34.2236C6.64635 33.7853 6.24127 33.4695 5.75387 33.3344C5.26656 33.1995 4.7567 33.2616 4.31832 33.5096L2.20494 34.7057C1.29791 35.219 0.977598 36.3746 1.49088 37.2817L7.70406 48.26C7.95211 48.6983 8.35719 49.0141 8.84459 49.1492C9.01314 49.1959 9.18434 49.219 9.35436 49.219C9.67594 49.219 9.99342 49.1362 10.2801 48.974L12.3935 47.7779C12.8318 47.5298 13.1476 47.1248 13.2828 46.6374C13.4178 46.15 13.3556 45.6401 13.1076 45.2017L12.5221 44.1673L13.6621 43.5091L23.264 46.0819C23.8062 46.2272 24.3458 46.2995 24.8763 46.2995C25.9498 46.2995 26.9868 46.004 27.9348 45.4203L41.604 37.0034C42.8998 36.2057 43.313 34.1986 42.4709 32.7928C42.0633 32.1121 40.3942 30.0888 36.0331 32.6285ZM11.7771 46.2201C11.7634 46.2694 11.7254 46.3607 11.624 46.4182L9.51061 47.6143C9.40934 47.6718 9.31129 47.6573 9.26197 47.6435C9.21266 47.6299 9.12135 47.5918 9.06393 47.4904L2.85084 36.5122C2.76334 36.3576 2.81998 36.153 2.97467 36.0655L5.08814 34.8694C5.13629 34.842 5.19076 34.8277 5.24615 34.8278C5.28326 34.8278 5.3148 34.834 5.33678 34.8401C5.38609 34.8538 5.4774 34.8919 5.53473 34.9932L11.7479 45.9714C11.8051 46.0728 11.7908 46.1707 11.7771 46.2201ZM40.7848 35.673L27.1158 44.0898C26.0592 44.7401 24.8995 44.9028 23.6685 44.5727L13.7539 41.9161C13.5537 41.8626 13.3405 41.8906 13.1611 41.9941L11.7525 42.8073L8.13619 36.4177L13.6546 33.2225C14.888 32.5084 16.2202 31.9092 17.6036 32.358C18.0596 32.5059 18.5865 32.6964 19.1965 32.917C20.9499 33.5509 23.1283 34.3385 25.3931 34.7535C26.1186 35.0112 26.5243 35.711 26.3397 36.3999C26.0964 37.3073 25.3334 37.4202 24.7243 37.3509C23.6215 37.1238 22.5714 36.8241 21.4605 36.5069C20.931 36.3558 20.3836 36.1994 19.8204 36.0484C19.6214 35.9983 19.4107 36.0285 19.2338 36.1325C19.0569 36.2364 18.928 36.4057 18.8749 36.6039C18.8218 36.8021 18.8488 37.0132 18.95 37.1917C19.0513 37.3701 19.2186 37.5016 19.416 37.5577C19.9668 37.7053 20.5081 37.8599 21.0314 38.0094C22.1832 38.3383 24.4706 38.8937 24.4757 38.8945L25.4127 39.047C26.8403 39.2752 28.1077 39.0525 29.2871 38.3657L36.8193 33.9786C38.9271 32.751 40.5387 32.6076 41.1304 33.5956C41.5347 34.2704 41.3603 35.3187 40.7848 35.673ZM5.64557 36.8914C5.66141 36.9901 5.65748 37.091 5.634 37.1882C5.61052 37.2854 5.56796 37.3769 5.50879 37.4575C5.44963 37.5381 5.37503 37.6062 5.28934 37.6577C5.20366 37.7092 5.10859 37.7432 5.00965 37.7576C4.91072 37.7721 4.8099 37.7668 4.71305 37.7419C4.61621 37.7171 4.52526 37.6732 4.4455 37.6129C4.36574 37.5527 4.29875 37.4771 4.24844 37.3907C4.19812 37.3043 4.16548 37.2088 4.1524 37.1097C4.12647 36.9131 4.17897 36.7142 4.29854 36.556C4.41812 36.3978 4.59516 36.293 4.79137 36.2643C4.98759 36.2356 5.18721 36.2854 5.34706 36.4027C5.50691 36.52 5.61414 36.6956 5.64557 36.8914ZM31.7869 15.0882C31.7869 11.9718 29.2514 9.43632 26.135 9.43632C23.0186 9.43632 20.4832 11.9718 20.4832 15.0882C20.4832 16.989 21.4273 18.6723 22.8703 19.6974C19.0768 20.9421 16.2265 24.3037 15.7804 28.4723C15.7687 28.5812 15.7801 28.6915 15.8138 28.7958C15.8475 28.9001 15.9028 28.9961 15.9761 29.0777C16.0493 29.1592 16.1389 29.2244 16.2391 29.269C16.3392 29.3136 16.4476 29.3367 16.5572 29.3366H35.7126C35.8222 29.3367 35.9306 29.3136 36.0307 29.269C36.1308 29.2244 36.2205 29.1592 36.2937 29.0776C36.367 28.9961 36.4223 28.9 36.456 28.7957C36.4897 28.6914 36.501 28.5812 36.4893 28.4722C36.0431 24.3037 33.1929 20.9422 29.3996 19.6974C30.8426 18.6724 31.7869 16.989 31.7869 15.0882ZM34.8004 27.7741H17.4694C18.3114 23.7086 21.8935 20.7409 26.133 20.7399L26.135 20.74H26.137C30.3763 20.741 33.9585 23.7086 34.8004 27.7741ZM26.1349 19.1774H26.1324C23.8788 19.176 22.0457 17.3422 22.0457 15.0882C22.0457 12.8333 23.8801 10.9988 26.135 10.9988C28.3899 10.9988 30.2244 12.8333 30.2244 15.0882C30.2244 17.3422 28.3913 19.1761 26.1376 19.1774H26.1349Z" fill="#EC7216"/>
</svg>
