<svg width="50" height="50" viewBox="0 0 50 50" fill="none" xmlns="http://www.w3.org/2000/svg">
<g clip-path="url(#clip0_365_231)">
<path opacity="0.945" fill-rule="evenodd" clip-rule="evenodd" d="M8.73942 -0.0488281C10.3996 -0.0488281 12.0597 -0.0488281 13.7199 -0.0488281C13.982 0.165527 14.1447 0.442221 14.2082 0.78125C14.9342 3.24625 15.683 5.70394 16.4543 8.1543C18.6345 8.2682 20.8155 8.28448 22.9972 8.20312C22.4865 6.30681 21.9982 4.40251 21.5324 2.49023C21.5603 2.13428 21.7231 1.85758 22.0207 1.66016C23.1274 1.59505 24.2342 1.59505 25.341 1.66016C25.4807 1.70559 25.5946 1.78697 25.6828 1.9043C26.9889 4.01213 28.3073 6.11174 29.6379 8.20312C32.1444 8.23567 34.6508 8.26823 37.1574 8.30078C39.3326 8.5913 41.2532 9.43766 42.9191 10.8398C43.977 11.8978 45.035 12.9558 46.0929 14.0137C46.9544 15.4471 46.7754 16.7328 45.5558 17.8711C45.2744 18.0281 44.9814 18.1583 44.6769 18.2617C39.2404 18.278 33.8043 18.3269 28.3683 18.4082C26.9007 20.478 25.4521 22.5614 24.0226 24.6582C23.8143 24.888 23.5539 24.9856 23.2414 24.9512C22.2981 24.7345 21.3704 24.4578 20.4582 24.1211C20.0922 23.9664 19.8968 23.6897 19.8722 23.291C20.5412 21.6259 21.2573 19.9819 22.0207 18.3594C19.2051 18.3325 16.6986 17.4536 14.5011 15.7227C12.4667 13.6882 10.4321 11.6536 8.39762 9.61914C8.23637 6.56762 8.20381 3.50771 8.29997 0.439453C8.40006 0.225884 8.54655 0.0631231 8.73942 -0.0488281ZM10.009 1.70898C10.8903 1.67661 11.7692 1.70916 12.6457 1.80664C13.2967 3.92253 13.9477 6.03841 14.5988 8.1543C13.0703 8.25189 11.5403 8.28444 10.009 8.25195C10.009 6.07097 10.009 3.88997 10.009 1.70898ZM23.5832 3.4668C23.7094 3.40252 23.8559 3.36997 24.0226 3.36914C24.2523 3.35009 24.4476 3.4152 24.6086 3.56445C25.5688 5.11067 26.5292 6.6569 27.4894 8.20312C26.5786 8.25193 25.6671 8.26821 24.755 8.25195C24.4385 6.62805 24.0479 5.033 23.5832 3.4668ZM11.2785 10.1074C19.8233 9.99356 28.3845 9.97734 36.9621 10.0586C38.3913 10.2203 39.6933 10.7086 40.8683 11.5234C38.8829 11.5723 36.8972 11.5886 34.9113 11.5723C34.9113 12.1582 34.9113 12.7441 34.9113 13.3301C37.5807 13.3138 40.2501 13.3301 42.9191 13.3789C43.5895 14.0167 44.2243 14.684 44.8234 15.3809C44.997 15.9234 44.818 16.2979 44.2863 16.5039C39.4357 16.5853 34.5854 16.569 29.7355 16.4551C30.0207 15.9555 29.9882 15.4834 29.6379 15.0391C28.6355 14.9286 27.6264 14.8798 26.6105 14.8926C25.6991 14.9089 24.7876 14.9251 23.8761 14.9414C23.6975 14.9681 23.551 15.0495 23.4367 15.1855C23.211 15.6205 22.9994 16.06 22.8019 16.5039C20.5065 16.7031 18.3907 16.1823 16.4543 14.9414C14.6535 13.4175 12.9282 11.8062 11.2785 10.1074ZM24.6574 16.6504C25.5694 16.6342 26.4809 16.6504 27.3918 16.6992C25.9071 18.7406 24.4586 20.8077 23.0461 22.9004C22.6858 22.9934 22.344 22.9282 22.0207 22.7051C22.9007 20.6848 23.7797 18.6665 24.6574 16.6504Z" fill="#EC7216"/>
<path opacity="0.897" fill-rule="evenodd" clip-rule="evenodd" d="M18.2109 11.5723C18.7969 11.5723 19.3828 11.5723 19.9688 11.5723C19.9688 12.1582 19.9688 12.7441 19.9688 13.3301C19.3828 13.3301 18.7969 13.3301 18.2109 13.3301C18.2109 12.7441 18.2109 12.1582 18.2109 11.5723Z" fill="#EC7216"/>
<path opacity="0.899" fill-rule="evenodd" clip-rule="evenodd" d="M21.5312 11.5723C22.1172 11.5723 22.7031 11.5723 23.2891 11.5723C23.2891 12.1582 23.2891 12.7441 23.2891 13.3301C22.7031 13.3301 22.1172 13.3301 21.5312 13.3301C21.5312 12.7441 21.5312 12.1582 21.5312 11.5723Z" fill="#EC7216"/>
<path opacity="0.899" fill-rule="evenodd" clip-rule="evenodd" d="M24.9531 11.5723C25.5391 11.5723 26.125 11.5723 26.7109 11.5723C26.7109 12.1582 26.7109 12.7441 26.7109 13.3301C26.125 13.3301 25.5391 13.3301 24.9531 13.3301C24.9531 12.7441 24.9531 12.1582 24.9531 11.5723Z" fill="#EC7216"/>
<path opacity="0.899" fill-rule="evenodd" clip-rule="evenodd" d="M28.2734 11.5723C28.8594 11.5723 29.4453 11.5723 30.0312 11.5723C30.0312 12.1582 30.0312 12.7441 30.0312 13.3301C29.4453 13.3301 28.8594 13.3301 28.2734 13.3301C28.2734 12.7441 28.2734 12.1582 28.2734 11.5723Z" fill="#EC7216"/>
<path opacity="0.897" fill-rule="evenodd" clip-rule="evenodd" d="M31.5938 11.5723C32.1797 11.5723 32.7656 11.5723 33.3516 11.5723C33.3516 12.1582 33.3516 12.7441 33.3516 13.3301C32.7656 13.3301 32.1797 13.3301 31.5938 13.3301C31.5938 12.7441 31.5938 12.1582 31.5938 11.5723Z" fill="#EC7216"/>
<path opacity="0.941" fill-rule="evenodd" clip-rule="evenodd" d="M21.6328 49.9512C21.3724 49.9512 21.112 49.9512 20.8516 49.9512C20.0955 49.6857 19.4445 49.2462 18.8984 48.6328C18.3779 48.2987 17.8571 48.266 17.3359 48.5352C16.7043 49.1532 15.9882 49.6253 15.1875 49.9512C14.6667 49.9512 14.1458 49.9512 13.625 49.9512C12.8689 49.6857 12.218 49.2462 11.6719 48.6328C10.749 48.1542 9.96777 48.3495 9.32813 49.2188C8.90674 49.5432 8.45102 49.7873 7.96094 49.9512C7.44011 49.9512 6.91927 49.9512 6.39844 49.9512C5.57815 49.6538 4.86201 49.1818 4.25 48.5352C3.37887 48.1858 2.66271 48.4136 2.10156 49.2188C1.68018 49.5432 1.22445 49.7873 0.734375 49.9512C0.473958 49.9512 0.213542 49.9512 -0.046875 49.9512C-0.046875 49.3653 -0.046875 48.7793 -0.046875 48.1934C0.119062 48.209 0.281822 48.1928 0.441406 48.1446C0.925163 47.8238 1.38089 47.4656 1.80859 47.0703C2.2096 46.8553 2.63277 46.7088 3.07813 46.6309C2.1115 43.6979 1.06983 40.8007 -0.046875 37.9395C-0.046875 37.6465 -0.046875 37.3535 -0.046875 37.0606C0.0677857 36.871 0.230546 36.7245 0.441406 36.6211C1.18178 36.4184 1.88164 36.1416 2.54102 35.791C3.0293 33.0892 3.51758 30.3874 4.00586 27.6856C4.02091 27.2482 4.19994 26.9064 4.54297 26.6602C5.77952 26.6114 7.01649 26.595 8.25391 26.6114C8.20984 25.592 8.25867 24.5829 8.40039 23.584C8.57615 23.4066 8.78773 23.2926 9.03516 23.2422C10.207 23.1771 11.3789 23.1771 12.5508 23.2422C12.7982 23.2926 13.0098 23.4066 13.1855 23.584C13.3272 24.5829 13.3761 25.592 13.332 26.6114C14.5694 26.595 15.8064 26.6114 17.043 26.6602C17.1569 26.7741 17.2708 26.888 17.3848 27.002C17.9756 29.9237 18.529 32.8533 19.0449 35.791C19.7043 36.1416 20.4042 36.4184 21.1445 36.6211C21.5989 36.9084 21.7454 37.3154 21.584 37.8418C20.5286 40.7639 19.5032 43.6936 18.5078 46.6309C19.4332 46.7681 20.1819 47.2075 20.7539 47.9492C21.0182 48.1356 21.3111 48.2169 21.6328 48.1934C21.6328 48.7793 21.6328 49.3653 21.6328 49.9512ZM10.0117 24.9512C10.5325 24.9512 11.0534 24.9512 11.5742 24.9512C11.5742 25.5046 11.5742 26.0579 11.5742 26.6114C11.0534 26.6114 10.5325 26.6114 10.0117 26.6114C10.0117 26.0579 10.0117 25.5046 10.0117 24.9512ZM5.71484 28.3692C9.10089 28.3366 12.4863 28.3692 15.8711 28.4668C16.3357 30.7406 16.7426 33.0192 17.0918 35.3028C15.0146 34.5507 12.915 33.8671 10.793 33.252C8.67093 33.8671 6.57132 34.5507 4.49414 35.3028C4.83755 32.982 5.24445 30.6707 5.71484 28.3692ZM9.62109 35.4004C9.71875 35.4004 9.81641 35.4004 9.91406 35.4004C9.91406 39.1765 9.91406 42.9525 9.91406 46.7285C9.17188 46.9375 8.55339 47.3445 8.05859 47.9492C7.47266 48.2747 6.88672 48.2747 6.30078 47.9492C5.95353 47.5529 5.5629 47.2111 5.12891 46.9239C4.02781 43.9459 2.98614 40.9512 2.00391 37.9395C4.57068 37.1489 7.10975 36.3027 9.62109 35.4004ZM11.6719 35.4004C14.3086 36.2468 16.9453 37.0931 19.582 37.9395C18.5998 40.9512 17.5581 43.9459 16.457 46.9239C16.023 47.2111 15.6324 47.5529 15.2852 47.9492C14.6992 48.2747 14.1133 48.2747 13.5273 47.9492C13.0325 47.3445 12.4141 46.9375 11.6719 46.7285C11.6719 42.9525 11.6719 39.1765 11.6719 35.4004Z" fill="#EC7216"/>
<path opacity="0.924" fill-rule="evenodd" clip-rule="evenodd" d="M7.375 29.9316C9.65364 29.9316 11.9323 29.9316 14.2109 29.9316C14.2109 30.5176 14.2109 31.1035 14.2109 31.6895C11.9323 31.6895 9.65364 31.6895 7.375 31.6895C7.375 31.1035 7.375 30.5176 7.375 29.9316Z" fill="#EC7216"/>
<path opacity="0.946" fill-rule="evenodd" clip-rule="evenodd" d="M49.9492 39.502C49.9492 42.0085 49.9492 44.515 49.9492 47.0215C49.817 47.236 49.6217 47.3824 49.3633 47.461C48.4176 47.4774 47.4736 47.5262 46.5313 47.6074C46.0942 48.7935 45.2804 49.5747 44.0899 49.9512C43.5691 49.9512 43.0482 49.9512 42.5274 49.9512C41.5871 49.6789 40.8547 49.1256 40.3301 48.291C40.1991 48.0447 40.1178 47.7843 40.086 47.5098C38.0667 47.4773 36.0485 47.5098 34.0313 47.6074C33.5942 48.7935 32.7804 49.5747 31.5899 49.9512C31.0691 49.9512 30.5482 49.9512 30.0274 49.9512C29.0871 49.6789 28.3547 49.1256 27.8301 48.291C27.6991 48.0447 27.6178 47.7843 27.586 47.5098C26.3486 47.5261 25.1115 47.5098 23.875 47.461C23.4645 47.341 23.253 47.0644 23.2403 46.6309C23.1751 41.6179 23.1751 36.6048 23.2403 31.5918C23.248 31.1033 23.4921 30.8267 23.9727 30.7617C29.6367 30.6966 35.3008 30.6966 40.9649 30.7617C41.265 30.8339 41.4766 31.0129 41.5996 31.2989C41.6485 32.2097 41.6647 33.1212 41.6485 34.0332C43.3415 34.0169 45.0342 34.0332 46.7266 34.0821C46.8971 34.1281 47.0599 34.1932 47.2149 34.2774C48.1416 36.0172 49.0531 37.7587 49.9492 39.502ZM24.9492 32.4707C29.9297 32.4707 34.9102 32.4707 39.8906 32.4707C39.8906 36.8978 39.8906 41.3249 39.8906 45.752C37.9365 45.7845 35.9833 45.752 34.0313 45.6543C33.176 43.6269 31.6786 42.8945 29.5391 43.4571C28.5149 43.8953 27.8313 44.644 27.4883 45.7031C26.6426 45.752 25.7962 45.7682 24.9492 45.752C24.9492 41.3249 24.9492 36.8978 24.9492 32.4707ZM41.6485 35.791C42.1693 35.791 42.6902 35.791 43.211 35.791C43.1947 37.2237 43.211 38.656 43.2598 40.0879C43.3086 40.5274 43.5528 40.7715 43.9922 40.8203C45.3915 40.8692 46.7913 40.8855 48.1914 40.8692C48.1914 42.4968 48.1914 44.1243 48.1914 45.752C47.6342 45.7841 47.0809 45.7515 46.5313 45.6543C45.9833 44.1136 44.8929 43.2997 43.2598 43.2129C42.7281 43.2445 42.2236 43.3746 41.7461 43.6035C41.6485 41.0002 41.6159 38.396 41.6485 35.791ZM44.9688 35.791C45.3532 35.7624 45.7276 35.7949 46.0918 35.8887C46.6164 36.9542 47.1535 38.0122 47.7031 39.0625C46.7923 39.1114 45.8808 39.1276 44.9688 39.1114C44.9688 38.0046 44.9688 36.8978 44.9688 35.791ZM30.6133 44.9707C32.1453 45.2026 32.6498 46.0489 32.127 47.5098C31.2795 48.3856 30.4006 48.4181 29.4903 47.6074C28.9016 46.3114 29.2759 45.4324 30.6133 44.9707ZM43.1133 44.9707C44.6453 45.2026 45.1498 46.0489 44.627 47.5098C43.7795 48.3856 42.9006 48.4181 41.9903 47.6074C41.4016 46.3114 41.7759 45.4324 43.1133 44.9707Z" fill="#EC7216"/>
</g>
<defs>
<clipPath id="clip0_365_231">
<rect width="50" height="50" fill="white"/>
</clipPath>
</defs>
</svg>
