<svg width="50" height="50" viewBox="0 0 50 50" fill="none" xmlns="http://www.w3.org/2000/svg">
<path d="M25.8403 7.04922C25.8403 4.55616 23.812 2.52794 21.3189 2.52794C18.826 2.52794 16.7978 4.55616 16.7978 7.04922C16.7978 9.54229 18.826 11.5706 21.3189 11.5706C23.8121 11.5705 25.8403 9.54229 25.8403 7.04922ZM18.3603 7.04922C18.3603 5.41768 19.6875 4.09044 21.3189 4.09044C22.9505 4.09044 24.2778 5.41768 24.2778 7.04922C24.2778 8.68077 22.9505 10.0081 21.3189 10.0081C19.6876 10.008 18.3603 8.68077 18.3603 7.04922ZM30.8932 46.3195C30.8932 46.4506 30.8675 46.5804 30.8174 46.7014C30.7673 46.8225 30.6938 46.9325 30.6011 47.0252C30.5084 47.1179 30.3984 47.1913 30.2773 47.2414C30.1562 47.2915 30.0265 47.3173 29.8954 47.3172C29.3439 47.3172 28.8978 46.8711 28.8978 46.3195C28.8978 45.768 29.3438 45.3219 29.8954 45.3219C30.0265 45.3218 30.1562 45.3475 30.2773 45.3976C30.3984 45.4477 30.5085 45.5212 30.6012 45.6138C30.6938 45.7065 30.7673 45.8165 30.8174 45.9376C30.8675 46.0587 30.8933 46.1885 30.8932 46.3195ZM10.7986 46.3195C10.7987 46.4506 10.773 46.5804 10.7228 46.7014C10.6727 46.8225 10.5992 46.9325 10.5066 47.0252C10.4139 47.1179 10.3039 47.1913 10.1828 47.2414C10.0617 47.2915 9.93192 47.3173 9.80088 47.3172C9.24941 47.3172 8.80322 46.8711 8.80322 46.3195C8.80322 45.768 9.24932 45.3219 9.80088 45.3219C10.3524 45.3219 10.7986 45.7679 10.7986 46.3195ZM8.64531 32.16C8.54172 31.9805 8.51364 31.7673 8.56727 31.5672C8.62089 31.367 8.75182 31.1964 8.93125 31.0928L13.3736 28.5279C13.553 28.426 13.7654 28.3991 13.9645 28.4531C14.1636 28.5072 14.3332 28.6378 14.4363 28.8165C14.5395 28.9951 14.5678 29.2073 14.5151 29.4068C14.4623 29.6062 14.3329 29.7767 14.1549 29.8811L9.7125 32.4459C9.62367 32.4973 9.52559 32.5306 9.42386 32.5441C9.32212 32.5575 9.21874 32.5507 9.11963 32.5242C9.02051 32.4976 8.9276 32.4518 8.84621 32.3893C8.76482 32.3268 8.69656 32.2489 8.64531 32.16ZM17.1104 33.4375C17.2139 33.6169 17.242 33.8302 17.1884 34.0303C17.1348 34.2305 17.0038 34.4011 16.8244 34.5047L12.3821 37.0695C12.2933 37.1209 12.1952 37.1542 12.0935 37.1676C11.9917 37.181 11.8884 37.1743 11.7892 37.1477C11.6901 37.1212 11.5972 37.0753 11.5158 37.0129C11.4344 36.9504 11.3661 36.8725 11.3148 36.7836C11.2112 36.6042 11.1832 36.3909 11.2368 36.1908C11.2904 35.9907 11.4213 35.82 11.6008 35.7164L16.0431 33.1516C16.4168 32.9361 16.8946 33.0639 17.1104 33.4375ZM7.6584 35.8122C7.5548 35.6328 7.52673 35.4195 7.58035 35.2194C7.63398 35.0193 7.7649 34.8486 7.94434 34.745L17.0302 29.4993C17.2095 29.3974 17.4219 29.3705 17.621 29.4245C17.8201 29.4786 17.9897 29.6092 18.0929 29.7878C18.196 29.9665 18.2243 30.1787 18.1716 30.3782C18.1189 30.5776 17.9894 30.7481 17.8114 30.8524L8.72559 36.0982C8.63674 36.1495 8.53866 36.1828 8.43694 36.1962C8.33522 36.2096 8.23186 36.2028 8.13275 36.1763C8.03365 36.1497 7.94075 36.1039 7.85936 36.0414C7.77797 35.979 7.70968 35.9011 7.6584 35.8122ZM43.4501 32.4083H40.5554C38.8006 32.4083 37.3729 30.9807 37.3729 29.2259C37.3729 27.4711 38.8006 26.0435 40.5554 26.0435H42.9621C45.5784 26.0435 47.7069 23.9149 47.7069 21.2985C47.7069 18.6821 45.5784 16.5536 42.9621 16.5536H28.6712C28.0435 15.769 26.4639 15.3524 24.8027 15.1346C26.5134 13.0937 28.3174 10.1954 28.3174 7.04708C28.3174 3.18819 25.1779 0.0487366 21.3189 0.0487366C17.4601 0.0487366 14.3207 3.18819 14.3207 7.04708C14.3207 10.1954 16.1246 13.0937 17.8353 15.1346C15.6912 15.4155 13.6812 16.0275 13.6812 17.3349C13.6812 18.6287 15.6444 19.0967 16.2895 19.2504C17.6421 19.5728 19.4282 19.7504 21.3188 19.7504C23.2096 19.7504 24.9957 19.5729 26.3483 19.2504C26.8419 19.1327 28.1062 18.8308 28.6733 18.1161H42.9619C44.7166 18.1161 46.1442 19.5438 46.1442 21.2985C46.1442 23.0533 44.7166 24.481 42.9619 24.481H40.5554C37.939 24.481 35.8104 26.6095 35.8104 29.2259C35.8104 31.8423 37.939 33.9708 40.5554 33.9708H43.4502C45.9038 33.9708 47.8998 35.9669 47.8998 38.4204C47.8998 40.8739 45.9037 42.87 43.4502 42.87H37.0195V36.1764C37.0195 35.4243 36.7623 34.7616 36.2549 34.2067L31.2402 28.722C30.6724 28.1009 29.9274 27.7726 29.0857 27.7726H25.2167V27.2409C25.2167 25.6314 23.9072 24.3219 22.2976 24.3219H3.4582C1.84863 24.3219 0.539062 25.6314 0.539062 27.2409V44.1816C0.539062 45.7912 1.84854 47.1008 3.4582 47.1008H6.25488C6.61328 48.7289 8.0667 49.9512 9.80098 49.9512C11.5353 49.9512 12.9888 48.7289 13.3472 47.1008H26.3493C26.7077 48.7289 28.1611 49.9512 29.8955 49.9512C31.6299 49.9512 33.0832 48.7289 33.4417 47.1008H35.5256C36.3494 47.1008 37.0196 46.4306 37.0196 45.6066V44.4326H43.4503C46.7654 44.4326 49.4624 41.7356 49.4624 38.4205C49.4624 35.1055 46.7652 32.4083 43.4501 32.4083ZM21.3189 1.61133C24.3163 1.61133 26.7549 4.04981 26.7549 7.04717C26.7549 11.2701 22.7331 15.2151 21.3189 16.4714C19.9049 15.215 15.8832 11.2701 15.8832 7.04717C15.8832 4.04981 18.3217 1.61133 21.3189 1.61133ZM15.4561 17.336C15.9555 17.0839 17.129 16.7335 19.1435 16.5687C20.0525 17.4867 20.7502 18.044 20.8353 18.1111C20.8712 18.1395 20.9091 18.1641 20.9482 18.1853C18.0357 18.1484 16.1461 17.6837 15.4561 17.336ZM21.6897 18.1853C21.7295 18.1638 21.7673 18.139 21.8027 18.1111C21.8878 18.044 22.5854 17.4866 23.4945 16.5687C25.5091 16.7335 26.6826 17.0839 27.182 17.336C26.4919 17.6837 24.6022 18.1484 21.6897 18.1853ZM30.087 29.7764L35.1017 35.2612C35.1417 35.3051 35.177 35.3499 35.2101 35.3953H28.1677V29.3352H29.0857C29.4881 29.3352 29.8156 29.4795 30.087 29.7764ZM3.4582 25.8845H22.2977C23.0457 25.8845 23.6543 26.493 23.6543 27.241V40.4258H2.10156V27.2409C2.10156 26.493 2.71016 25.8845 3.4582 25.8845ZM9.80088 48.3887C8.65996 48.3887 7.73174 47.4605 7.73174 46.3195C7.73174 45.1786 8.65996 44.2504 9.80088 44.2504C10.9419 44.2504 11.8701 45.1786 11.8701 46.3195C11.8701 47.4605 10.9419 48.3887 9.80088 48.3887ZM13.3471 45.5383C12.9886 43.9102 11.5352 42.6879 9.80088 42.6879C8.0666 42.6879 6.61328 43.9102 6.25479 45.5383H3.4582C2.71016 45.5383 2.10156 44.9297 2.10156 44.1816V41.9882H23.6542V45.5383H13.3471ZM29.8955 48.3887C28.7545 48.3887 27.8264 47.4605 27.8264 46.3195C27.8264 45.1786 28.7546 44.2504 29.8955 44.2504C31.0364 44.2504 31.9646 45.1786 31.9646 46.3195C31.9646 47.4605 31.0364 48.3887 29.8955 48.3887ZM33.4416 45.5383C33.0832 43.9102 31.6298 42.6879 29.8954 42.6879C28.161 42.6879 26.7077 43.9102 26.3492 45.5383H25.2166V29.3352H26.6051V36.1766C26.6051 36.3838 26.6874 36.5825 26.8339 36.729C26.9804 36.8755 27.1791 36.9578 27.3863 36.9578H35.4569V45.5383H33.4416Z" fill="white"/>
</svg>
