<svg width="5" height="5" viewBox="0 0 5 5" fill="none" xmlns="http://www.w3.org/2000/svg">
<path opacity="0.977" fill-rule="evenodd" clip-rule="evenodd" d="M2.70455 0.426814C2.82497 0.414096 2.93957 0.431992 3.0483 0.480525C3.64628 1.0785 4.24427 1.6765 4.84225 2.27447C4.91386 2.41771 4.91386 2.56092 4.84225 2.70416C4.24427 3.30213 3.64628 3.90013 3.0483 4.4981C2.86092 4.58911 2.69263 4.56404 2.54342 4.42291C2.47181 4.27967 2.47181 4.13646 2.54342 3.99322C2.92655 3.61009 3.3097 3.22694 3.69283 2.84381C2.56132 2.83665 1.42982 2.82948 0.298303 2.82232C0.148192 2.76202 0.0765845 2.65103 0.0834595 2.48931C0.0765845 2.3276 0.148192 2.21661 0.298303 2.15631C1.42982 2.14915 2.56132 2.14198 3.69283 2.13482C3.3097 1.75169 2.92655 1.36854 2.54342 0.985408C2.42906 0.746373 2.48277 0.560168 2.70455 0.426814Z" fill="#EC7216"/>
</svg>
