<svg width="60" height="60" viewBox="0 0 60 60" fill="none" xmlns="http://www.w3.org/2000/svg">
<g clip-path="url(#clip0_191_277)">
<path opacity="0.931" fill-rule="evenodd" clip-rule="evenodd" d="M29.0039 -0.0585938C29.668 -0.0585938 30.332 -0.0585938 30.9961 -0.0585938C37.1576 0.810892 40.1849 4.36557 40.0781 10.6055C39.8891 12.7093 39.3618 14.7211 38.4961 16.6406C43.2226 16.6796 47.9493 16.7188 52.6758 16.7578C56.6929 17.4354 59.1148 19.7596 59.9414 23.7305C59.9414 24.5508 59.9414 25.3711 59.9414 26.1914C58.7585 31.005 55.6725 33.3293 50.6836 33.1641C49.8588 32.6735 49.7807 32.0876 50.4492 31.4062C52.8135 31.5413 54.8252 30.7795 56.4844 29.1211C58.586 26.3469 58.586 23.5734 56.4844 20.8008C55.4878 19.7066 54.2573 19.0229 52.793 18.75C47.7144 18.6524 42.6362 18.6718 37.5586 18.8086C36.347 21.0925 35.0188 23.2995 33.5742 25.4297C37.9492 27.3829 42.3243 29.3359 46.6992 31.2891C46.9085 31.3811 47.0843 31.5177 47.2266 31.6992C47.2852 36.4256 47.3047 41.1521 47.2852 45.8789C51.3478 45.8593 55.4104 45.8789 59.4727 45.9375C59.6895 46.0184 59.8458 46.155 59.9414 46.3477C59.9414 46.6602 59.9414 46.9726 59.9414 47.2852C59.8078 47.4376 59.6516 47.5744 59.4727 47.6953C55.4493 47.7343 51.4257 47.7735 47.4023 47.8125C47.3536 49.1125 47.334 50.421 47.3438 51.7383C47.2833 52.0352 47.1465 52.2891 46.9336 52.5C41.3623 54.9541 35.8154 57.4346 30.293 59.9414C30.0976 59.9414 29.9024 59.9414 29.707 59.9414C24.1846 57.4346 18.6377 54.9541 13.0664 52.5C12.9257 52.3942 12.8279 52.2575 12.7734 52.0898C12.7007 50.6448 12.6421 49.1994 12.5977 47.7539C10.7222 47.7735 8.84725 47.7539 6.97266 47.6953C3.18611 46.9358 0.842357 44.6897 -0.0585938 40.957C-0.0585938 40.0195 -0.0585938 39.082 -0.0585938 38.1445C1.24724 33.2128 4.45036 30.9668 9.55078 31.4062C10.1758 31.9532 10.1758 32.5 9.55078 33.0469C6.53041 32.8481 4.2062 34.0004 2.57812 36.5039C1.1964 39.5954 1.7628 42.2712 4.27734 44.5312C5.24934 45.2591 6.34309 45.6888 7.55859 45.8203C9.23964 45.9179 10.9193 45.8984 12.5977 45.7617C12.597 41.314 12.6165 36.8609 12.6562 32.4023C12.7076 32.0653 12.8248 31.7528 13.0078 31.4648C17.4717 29.4381 21.9444 27.4263 26.4258 25.4297C24.9578 23.2951 23.6296 21.0686 22.4414 18.75C16.0743 18.6718 9.70703 18.6718 3.33984 18.75C4.06629 19.4372 4.74988 20.1599 5.39062 20.918C5.5072 22.0515 5.01892 22.4617 3.92578 22.1484C2.57079 20.8131 1.24266 19.4654 -0.0585938 18.1055C-0.0585938 17.7929 -0.0585938 17.4805 -0.0585938 17.168C1.28497 15.883 2.61309 14.5745 3.92578 13.2422C5.05086 12.8824 5.53915 13.2926 5.39062 14.4727C4.74988 15.2307 4.06629 15.9534 3.33984 16.6406C9.39454 16.7188 15.4492 16.7188 21.5039 16.6406C20.1193 13.6659 19.6702 10.5605 20.1562 7.32422C20.9393 3.98282 22.9509 1.73672 26.1914 0.585938C27.1295 0.301119 28.067 0.0862757 29.0039 -0.0585938ZM29.1211 1.69922C33.7617 1.52727 36.672 3.67571 37.8516 8.14453C38.0959 9.71307 38.0569 11.2756 37.7344 12.832C36.9571 16.0268 35.668 18.9955 33.8672 21.7383C32.6687 23.562 31.3796 25.3198 30 27.0117C27.5677 23.8296 25.4583 20.4312 23.6719 16.8164C22.612 14.711 21.9675 12.4845 21.7383 10.1367C22.1323 5.48653 24.5932 2.67403 29.1211 1.69922ZM29.4727 6.73828C31.678 6.74637 32.928 7.84013 33.2227 10.0195C33.0353 11.9843 31.961 13.078 30 13.3008C28.1494 13.0126 27.0751 11.9385 26.7773 10.0781C26.9727 8.38046 27.8712 7.26718 29.4727 6.73828ZM27.3633 27.1289C27.501 27.1032 27.6182 27.1423 27.7148 27.2461C28.195 27.9804 28.7418 28.6641 29.3555 29.2969C29.8591 29.6936 30.3475 29.6741 30.8203 29.2383C31.2865 28.4611 31.8334 27.758 32.4609 27.1289C33.3858 27.523 34.3038 27.9332 35.2148 28.3594C30.623 30.4794 26.0136 32.5692 21.3867 34.6289C19.585 33.8395 17.7881 33.0387 15.9961 32.2266C19.8234 30.5858 23.6125 28.8866 27.3633 27.1289ZM37.5586 29.4727C39.6976 30.3098 41.807 31.2278 43.8867 32.2266C39.2948 34.3466 34.6855 36.4364 30.0586 38.4961C27.9882 37.5782 25.918 36.6601 23.8477 35.7422C28.425 33.6485 32.9953 31.5587 37.5586 29.4727ZM14.5898 33.8086C19.3624 35.8945 24.128 38.0039 28.8867 40.1367C29.0235 45.9176 29.0429 51.6988 28.9453 57.4805C24.1895 55.3093 19.4239 53.1608 14.6484 51.0352C14.5898 45.2931 14.5703 39.5509 14.5898 33.8086ZM45.1758 33.8086C45.332 36.6395 45.4102 39.5106 45.4102 42.4219C45.3906 45.293 45.3711 48.1641 45.3516 51.0352C40.5761 53.1608 35.8105 55.3093 31.0547 57.4805C30.9571 51.6988 30.9765 45.9176 31.1133 40.1367C35.8225 38.0474 40.51 35.938 45.1758 33.8086Z" fill="#EC7216"/>
<path opacity="0.93" fill-rule="evenodd" clip-rule="evenodd" d="M29.7071 4.74609C32.7213 4.85061 34.5377 6.37405 35.1564 9.31641C35.3088 12.3654 33.9221 14.299 30.9962 15.1172C27.7187 15.4309 25.6679 14.0051 24.8439 10.8398C24.6758 7.35755 26.297 5.3263 29.7071 4.74609ZM29.4728 6.73828C27.8713 7.26718 26.9728 8.38046 26.7775 10.0781C27.0752 11.9385 28.1495 13.0126 30.0001 13.3008C31.9611 13.078 33.0354 11.9843 33.2228 10.0195C32.9282 7.84012 31.6781 6.74637 29.4728 6.73828Z" fill="#EC7216"/>
</g>
<defs>
<clipPath id="clip0_191_277">
<rect width="60" height="60" fill="white"/>
</clipPath>
</defs>
</svg>
