<svg width="36" height="36" viewBox="0 0 36 36" fill="none" xmlns="http://www.w3.org/2000/svg">
<g clip-path="url(#clip0_97_1316)">
<path opacity="0.931" fill-rule="evenodd" clip-rule="evenodd" d="M17.4023 -0.0351562C17.8008 -0.0351562 18.1992 -0.0351562 18.5977 -0.0351562C22.2945 0.486535 24.1109 2.61934 24.0469 6.36328C23.9335 7.6256 23.6171 8.83266 23.0977 9.98438C25.9336 10.0078 28.7696 10.0313 31.6055 10.0547C34.0157 10.4612 35.4689 11.8557 35.9648 14.2383C35.9648 14.7305 35.9648 15.2227 35.9648 15.7148C35.2551 18.603 33.4035 19.9976 30.4102 19.8984C29.9153 19.6041 29.8684 19.2525 30.2695 18.8438C31.6881 18.9247 32.8951 18.4677 33.8906 17.4727C35.1516 15.8081 35.1516 14.1441 33.8906 12.4805C33.2927 11.824 32.5544 11.4138 31.6758 11.25C28.6286 11.1914 25.5817 11.2031 22.5352 11.2852C21.8082 12.6555 21.0113 13.9797 20.1445 15.2578C22.7695 16.4297 25.3946 17.6015 28.0195 18.7734C28.1451 18.8286 28.2506 18.9106 28.3359 19.0195C28.3711 21.8554 28.3828 24.6913 28.3711 27.5273C30.8087 27.5156 33.2462 27.5273 35.6836 27.5625C35.8137 27.611 35.9075 27.693 35.9648 27.8086C35.9648 27.9961 35.9648 28.1836 35.9648 28.3711C35.8847 28.4626 35.791 28.5446 35.6836 28.6172C33.2696 28.6406 30.8554 28.6641 28.4414 28.6875C28.4122 29.4675 28.4004 30.2526 28.4062 31.043C28.37 31.2211 28.2879 31.3734 28.1602 31.5C24.8174 32.9725 21.4893 34.4608 18.1758 35.9648C18.0586 35.9648 17.9414 35.9648 17.8242 35.9648C14.5107 34.4608 11.1826 32.9725 7.83984 31.5C7.7554 31.4365 7.69676 31.3545 7.66406 31.2539C7.6204 30.3869 7.58524 29.5196 7.55859 28.6523C6.43335 28.6641 5.30835 28.6523 4.18359 28.6172C1.91166 28.1615 0.505414 26.8138 -0.0351562 24.5742C-0.0351562 24.0117 -0.0351562 23.4492 -0.0351562 22.8867C0.748343 19.9277 2.67022 18.5801 5.73047 18.8438C6.10547 19.1719 6.10547 19.5 5.73047 19.8281C3.91825 19.7089 2.52372 20.4003 1.54688 21.9023C0.717841 23.7573 1.05768 25.3627 2.56641 26.7188C3.14961 27.1555 3.80585 27.4133 4.53516 27.4922C5.54378 27.5508 6.5516 27.539 7.55859 27.457C7.55817 24.7884 7.56991 22.1165 7.59375 19.4414C7.62455 19.2392 7.69486 19.0517 7.80469 18.8789C10.483 17.6629 13.1666 16.4558 15.8555 15.2578C14.9747 13.9771 14.1777 12.6411 13.4648 11.25C9.64456 11.2031 5.82422 11.2031 2.00391 11.25C2.43977 11.6623 2.84993 12.0959 3.23438 12.5508C3.30432 13.2309 3.01135 13.477 2.35547 13.2891C1.54247 12.4879 0.745594 11.6793 -0.0351562 10.8633C-0.0351562 10.6758 -0.0351562 10.4883 -0.0351562 10.3008C0.770984 9.5298 1.56786 8.7447 2.35547 7.94531C3.03052 7.72945 3.32349 7.97555 3.23438 8.68359C2.84993 9.13844 2.43977 9.57206 2.00391 9.98438C5.63672 10.0313 9.26951 10.0313 12.9023 9.98438C12.0716 8.19956 11.8021 6.33628 12.0938 4.39453C12.5636 2.38969 13.7706 1.04203 15.7148 0.351562C16.2777 0.180671 16.8402 0.0517654 17.4023 -0.0351562ZM17.4727 1.01953C20.257 0.916362 22.0032 2.20543 22.7109 4.88672C22.8575 5.82784 22.8341 6.76534 22.6406 7.69922C22.1742 9.61608 21.4008 11.3973 20.3203 13.043C19.6012 14.1372 18.8278 15.1919 18 16.207C16.5406 14.2978 15.275 12.2587 14.2031 10.0898C13.5672 8.82661 13.1805 7.49067 13.043 6.08203C13.2794 3.29192 14.7559 1.60442 17.4727 1.01953ZM17.6836 4.04297C19.0068 4.04782 19.7568 4.70407 19.9336 6.01172C19.8212 7.19058 19.1766 7.8468 18 7.98047C16.8896 7.80757 16.2451 7.16309 16.0664 6.04688C16.1836 5.02828 16.7227 4.36031 17.6836 4.04297ZM16.418 16.2773C16.5006 16.2619 16.5709 16.2854 16.6289 16.3477C16.917 16.7882 17.2451 17.1984 17.6133 17.5781C17.9155 17.8161 18.2085 17.8045 18.4922 17.543C18.7719 17.0767 19.1 16.6548 19.4766 16.2773C20.0315 16.5138 20.5823 16.7599 21.1289 17.0156C18.3738 18.2876 15.6082 19.5415 12.832 20.7773C11.751 20.3037 10.6729 19.8232 9.59766 19.3359C11.8941 18.3515 14.1675 17.332 16.418 16.2773ZM22.5352 17.6836C23.8186 18.1859 25.0842 18.7367 26.332 19.3359C23.5769 20.608 20.8113 21.8618 18.0352 23.0977C16.7929 22.5469 15.5508 21.9961 14.3086 21.4453C17.055 20.1891 19.7972 18.9352 22.5352 17.6836ZM8.75391 20.2852C11.6175 21.5367 14.4768 22.8023 17.332 24.082C17.4141 27.5505 17.4258 31.0193 17.3672 34.4883C14.5137 33.1856 11.6544 31.8965 8.78906 30.6211C8.75391 27.1759 8.74216 23.7305 8.75391 20.2852ZM27.1055 20.2852C27.1992 21.9837 27.2461 23.7064 27.2461 25.4531C27.2344 27.1758 27.2227 28.8984 27.2109 30.6211C24.3456 31.8965 21.4863 33.1856 18.6328 34.4883C18.5742 31.0193 18.5859 27.5505 18.668 24.082C21.4935 22.8284 24.306 21.5628 27.1055 20.2852Z" fill="white"/>
<path opacity="0.93" fill-rule="evenodd" clip-rule="evenodd" d="M17.8245 2.84766C19.633 2.91037 20.7228 3.82443 21.094 5.58984C21.1855 7.41923 20.3535 8.57939 18.5979 9.07031C16.6314 9.25854 15.401 8.40305 14.9065 6.50391C14.8057 4.41453 15.7784 3.19578 17.8245 2.84766ZM17.6839 4.04297C16.723 4.36031 16.1839 5.02828 16.0667 6.04688C16.2453 7.16309 16.8899 7.80757 18.0003 7.98047C19.1769 7.8468 19.8214 7.19058 19.9339 6.01172C19.7571 4.70407 19.0071 4.04782 17.6839 4.04297Z" fill="white"/>
</g>
<defs>
<clipPath id="clip0_97_1316">
<rect width="36" height="36" fill="white"/>
</clipPath>
</defs>
</svg>
